<?xml version="1.0" standalone="no"?>
<!DOCTYPE svg PUBLIC "-//W3C//DTD SVG 1.1//EN" "http://www.w3.org/Graphics/SVG/1.1/DTD/svg11.dtd" >
<svg xmlns="http://www.w3.org/2000/svg" xmlns:xlink="http://www.w3.org/1999/xlink" version="1.1">
<metadata>
Created by FontForge 20170731 at Mon Jan 25 20:53:55 2021
 By Aleksey,,,
Copyright (c) 2019 by Nick Losacco. All rights reserved.
</metadata>
<defs>
<font id="Telegraf-SemiBold" horiz-adv-x="0" >
  <font-face 
    font-family="Telegraf SemiBold"
    font-weight="600"
    font-stretch="normal"
    units-per-em="2048"
    panose-1="0 0 7 0 0 0 0 0 0 0"
    ascent="1638"
    descent="-410"
    x-height="1024"
    cap-height="1362"
    bbox="-952 -659 2769 2083"
    underline-thickness="61"
    underline-position="-224"
    unicode-range="U+0020-25CF"
  />
<missing-glyph horiz-adv-x="921" 
d="M756 1434v-1844h-584v1844h584zM614 1311h-305v-62h121v-67h-123v-62h307v62h-122v67h122v62zM492 1073h-185v-192h307v63h-122v129zM430 1010v-66h-61v66h61zM614 831h-307v-61h123v-68h-123v-61h185v129h122v61zM614 721h-61v-123h-246v-61h307v184zM614 496h-184v-103
h62v41h61v-86h-184v148h-62v-209h307v209zM614 176h-307v-209h307v209zM553 117v-88h-184v88h184zM614 -74h-307v-61h129l-129 -86v-62h307v62h-188l129 86h59v61z" />
    <glyph glyph-name="f_f" unicode="ff" horiz-adv-x="1480" 
d="M1481 1247h-359v-223h301v-193h-270v-831h-254v831h-414v-831h-254v831h-178v125l178 74v123q0 138 79 209.5t261 71.5h197v-187h-311v-223h442v123q0 143 79 215t261 72h242v-187z" />
    <glyph glyph-name="f_f_i" unicode="ffi" horiz-adv-x="1912" 
d="M1239 1434h563v-187h-680v-223h285v-193h-254v-831h-254v831h-414v-831h-254v831h-178v125l178 74v123q0 138 79 209.5t261 71.5h197v-187h-311v-223h442v123q0 143 79 215t261 72zM1548 0v1024h254v-1024h-254z" />
    <glyph glyph-name="f_f_l" unicode="ffl" horiz-adv-x="1974" 
d="M1843 1434v-1434h-254v1247h-465v-223h285v-193h-256v-831h-254v831h-414v-831h-254v831h-178v125l178 74v123q0 138 79 209.5t261 71.5h197v-187h-311v-223h442v123q0 143 79 215t261 72h604z" />
    <glyph glyph-name="f_i" unicode="fi" horiz-adv-x="1267" 
d="M231 0v831h-178v125l178 72v119q0 143 79 215t261 72h564v-187h-678v-223h284v-193h-256v-831h-254zM883 0v1024h254v-1024h-254z" />
    <glyph glyph-name="f_l" unicode="fl" horiz-adv-x="1306" 
d="M1176 1434v-1434h-254v1247h-465v-223h284v-193h-256v-831h-254v831h-178v125l178 74v117q0 143 79 215t261 72h605z" />
    <glyph glyph-name=".notdef" horiz-adv-x="921" 
d="M756 1434v-1844h-584v1844h584zM614 1311h-305v-62h121v-67h-123v-62h307v62h-122v67h122v62zM492 1073h-185v-192h307v63h-122v129zM430 1010v-66h-61v66h61zM614 831h-307v-61h123v-68h-123v-61h185v129h122v61zM614 721h-61v-123h-246v-61h307v184zM614 496h-184v-103
h62v41h61v-86h-184v148h-62v-209h307v209zM614 176h-307v-209h307v209zM553 117v-88h-184v88h184zM614 -74h-307v-61h129l-129 -86v-62h307v62h-188l129 86h59v61z" />
    <glyph glyph-name=".null" 
 />
    <glyph glyph-name="nonmarkingreturn" horiz-adv-x="682" 
 />
    <glyph glyph-name="space" unicode=" " horiz-adv-x="512" 
 />
    <glyph glyph-name="exclam" unicode="!" horiz-adv-x="505" 
d="M168 420l-43 942h256l-43 -942h-170zM117 0v233h272v-233h-272z" />
    <glyph glyph-name="quotedbl" unicode="&#x22;" horiz-adv-x="622" 
d="M37 1362h229l-22 -490h-185zM356 1362h232l-25 -490h-184z" />
    <glyph glyph-name="numbersign" unicode="#" horiz-adv-x="1812" 
d="M1710 850h-354l-115 -313h311v-175h-374l-131 -362h-222l131 362h-366l-131 -362h-221l131 362h-267v175h330l115 313h-287v174h350l123 338h221l-123 -338h367l123 338h221l-123 -338h291v-174zM1020 537l115 313h-367l-115 -313h367z" />
    <glyph glyph-name="dollar" unicode="$" horiz-adv-x="1079" 
d="M1010 465q0 -281 -344 -322v-215h-250v217q-180 26 -266.5 124t-88.5 239h234q6 -90 68 -144.5t186 -54.5q116 0 165.5 35.5t49.5 101.5q0 58 -34.5 91t-115.5 45l-241 32q-140 20 -212.5 94t-72.5 197q0 130 87 211t241 105v213h250v-215q148 -25 232.5 -107.5
t94.5 -212.5h-241q-8 73 -60.5 116.5t-154.5 43.5q-103 0 -156 -36.5t-53 -94.5q0 -99 133 -117l233 -31q170 -22 243 -101t73 -214z" />
    <glyph glyph-name="percent" unicode="%" horiz-adv-x="1714" 
d="M98 0v25l1207 1175h-533v-407h-598v569h1303q116 0 116 -94q0 -58 -71 -127l-1166 -1141h-258zM348 956h254v244h-254v-244zM1008 0v567h598v-567h-598zM1180 164h254v244h-254v-244z" />
    <glyph glyph-name="ampersand" unicode="&#x26;" horiz-adv-x="1523" 
d="M1454 582h-217q-15 -167 -70 -295l246 -211l-125 -135l-223 190q-162 -168 -457 -168q-143 0 -253 40.5t-177 127t-67 209.5q0 135 66.5 226.5t205.5 162.5q-139 156 -139 309q0 171 118.5 266t319.5 95q192 0 304 -86t112 -232q0 -115 -65.5 -195t-201.5 -143l-126 -59
l311 -268q25 80 31 172q6 90 54.5 134t127.5 44h225v-184zM682 1229q-97 0 -152 -48t-55 -139q0 -118 92 -227l138 64q84 39 124.5 80t40.5 104q0 82 -48 124t-140 42zM623 143q189 0 297 111l-373 319q-11 11 -27 23q-178 -90 -178 -242q0 -98 72.5 -154.5t208.5 -56.5z
" />
    <glyph glyph-name="quotesingle" unicode="'" horiz-adv-x="303" 
d="M37 1362h229l-22 -490h-185z" />
    <glyph glyph-name="parenleft" unicode="(" horiz-adv-x="774" 
d="M82 580q0 158 34.5 300.5t87.5 247t127.5 197t143 152.5t146.5 112l92 -96q-371 -350 -371 -913q0 -564 371 -914l-92 -96q-78 52 -146.5 112.5t-143 153t-127.5 197t-87.5 247.5t-34.5 300z" />
    <glyph glyph-name="parenright" unicode=")" horiz-adv-x="774" 
d="M692 580q0 -157 -34 -299.5t-86.5 -247.5t-127 -197.5t-143.5 -153t-147 -112.5l-93 96q371 350 371 914q0 563 -371 913l93 96q78 -52 147 -112t143.5 -152.5t127 -197t86.5 -247t34 -300.5z" />
    <glyph glyph-name="asterisk" unicode="*" horiz-adv-x="804" 
d="M61 1126l70 117l240 -180l-35 299h133l-35 -299l240 180l67 -117l-274 -116l276 -119l-69 -119l-240 182l35 -299h-133l35 299l-240 -182l-68 119l275 117z" />
    <glyph glyph-name="plus" unicode="+" horiz-adv-x="1187" 
d="M1014 610v-180h-322v-332h-194v332h-324v180h324v330h194v-330h322z" />
    <glyph glyph-name="comma" unicode="," horiz-adv-x="337" 
d="M37 6v227h266v-368q0 -93 -48 -138.5t-153 -45.5h-65v141h117v184h-117z" />
    <glyph glyph-name="hyphen" unicode="-" horiz-adv-x="958" 
d="M59 610h840v-180h-840v180z" />
    <glyph glyph-name="period" unicode="." horiz-adv-x="346" 
d="M37 0v233h272v-233h-272z" />
    <glyph glyph-name="slash" unicode="/" horiz-adv-x="768" 
d="M20 0l496 1362h232l-496 -1362h-232z" />
    <glyph glyph-name="zero" unicode="0" horiz-adv-x="1470" 
d="M735 -35q-136 0 -245.5 37.5t-183 102.5t-123 156.5t-71.5 196t-22 224.5q0 118 22 222t71.5 195.5t123 157.5t183 104t245.5 38q135 0 244.5 -38t183 -104t123.5 -158t72 -196t22 -221q0 -150 -36.5 -276t-111.5 -226.5t-202 -157.5t-295 -57zM362 682q0 -255 86 -378.5
t287 -123.5q200 0 285.5 124t85.5 378t-85.5 378t-285.5 124q-201 0 -287 -123.5t-86 -378.5z" />
    <glyph glyph-name="one" unicode="1" horiz-adv-x="1036" 
d="M125 0v207h311v948h-299v207h289q270 0 270 -232v-923h279v-207h-850z" />
    <glyph glyph-name="two" unicode="2" horiz-adv-x="1378" 
d="M133 0v207l694 528q83 64 115.5 121.5t32.5 130.5q0 92 -60 148.5t-184 56.5q-177 0 -257.5 -100.5t-82.5 -274.5h-268q2 87 20.5 166t63.5 156.5t112 134t174 91t242 34.5q138 0 240 -32.5t158.5 -89.5t83 -125.5t26.5 -150.5q0 -136 -88 -254.5t-295 -265.5l-364 -274
h774v-207h-1137z" />
    <glyph glyph-name="three" unicode="3" horiz-adv-x="1335" 
d="M88 442h268q4 -130 88.5 -201t223.5 -71q144 0 221.5 68t77.5 204q0 113 -67.5 179.5t-186.5 66.5q-72 0 -126.5 -19t-111.5 -57l-110 162l493 381h-719v207h1018v-207l-448 -354q62 16 137 16q52 0 104 -11.5t105 -40.5t93 -71t65.5 -109.5t25.5 -150.5
q0 -75 -18.5 -141.5t-61.5 -127t-108 -104.5t-164 -70t-223 -26q-275 0 -423 127t-153 350z" />
    <glyph glyph-name="four" unicode="4" horiz-adv-x="1347" 
d="M1063 518h223v-207h-223v-311h-262v311h-738v207l605 844h395v-844zM301 518h500v690z" />
    <glyph glyph-name="five" unicode="5" horiz-adv-x="1339" 
d="M766 905q219 0 352 -116.5t133 -337.5q0 -224 -145.5 -355t-441.5 -131q-141 0 -249 32t-175.5 90t-102.5 133.5t-39 166.5h271q8 -97 81.5 -157t221.5 -60q313 0 313 279q0 139 -74 211.5t-209 72.5q-197 0 -309 -149h-248l50 778h997v-207h-780l-27 -381
q131 131 381 131z" />
    <glyph glyph-name="six" unicode="6" horiz-adv-x="1325" 
d="M756 866q94 0 176.5 -26t147 -76t102 -132.5t37.5 -187.5q0 -213 -149.5 -346t-399.5 -133q-130 0 -232.5 37.5t-183 118.5t-123.5 219.5t-43 329.5q0 357 162 543t446 186q243 0 373.5 -104t153.5 -291h-256q-41 190 -271 190q-185 0 -270.5 -119t-85.5 -379v-16
q63 89 172.5 137.5t243.5 48.5zM664 170q148 0 218 69.5t70 188.5q0 126 -71 195t-205 69q-146 0 -224.5 -69t-78.5 -195q0 -114 74 -186t217 -72z" />
    <glyph glyph-name="seven" unicode="7" horiz-adv-x="1189" 
d="M61 1155v207h1063v-160q-94 -91 -161.5 -168.5t-138.5 -187.5t-116.5 -227t-78 -275.5t-39.5 -343.5h-260q18 642 524 1155h-793z" />
    <glyph glyph-name="eight" unicode="8" horiz-adv-x="1306" 
d="M653 -33q-150 0 -262 33.5t-175.5 91.5t-93.5 126.5t-30 146.5q0 113 61 204t187 138q-100 46 -155.5 128t-55.5 187q0 73 28.5 137t88 118.5t164 86t243.5 31.5t243.5 -31.5t164 -85.5t88.5 -118.5t29 -137.5q0 -103 -56.5 -185t-154.5 -128q126 -49 186.5 -140
t60.5 -204q0 -78 -30 -146t-93.5 -126t-175.5 -92t-262 -34zM653 788q283 0 283 211q0 203 -283 203q-282 0 -282 -203q0 -211 282 -211zM653 160q301 0 301 225q0 104 -75 167.5t-226 63.5q-150 0 -224.5 -63.5t-74.5 -167.5q0 -225 299 -225z" />
    <glyph glyph-name="nine" unicode="9" horiz-adv-x="1325" 
d="M655 1399q104 0 190 -22.5t160.5 -75t125 -132.5t79.5 -200.5t29 -274.5q0 -357 -162 -543t-446 -186q-244 0 -374 104t-153 291h256q36 -190 271 -190q184 0 269 119t85 379v16q-63 -89 -171.5 -137.5t-242.5 -48.5q-94 0 -176.5 26t-148 76.5t-103 133t-37.5 188.5
q0 213 149.5 345t399.5 132zM649 674q147 0 225 68.5t78 193.5q0 114 -73.5 186t-214.5 72q-148 0 -218.5 -69.5t-70.5 -188.5q0 -126 70 -194t204 -68z" />
    <glyph glyph-name="colon" unicode=":" horiz-adv-x="346" 
d="M37 791v233h272v-233h-272zM37 0v233h272v-233h-272z" />
    <glyph glyph-name="semicolon" unicode=";" horiz-adv-x="346" 
d="M37 791v233h272v-233h-272zM37 6v227h266v-368q0 -93 -48 -138.5t-153 -45.5h-65v141h117v184h-117z" />
    <glyph glyph-name="less" unicode="&#x3c;" horiz-adv-x="1071" 
d="M897 907v-178l-569 -215l569 -213v-180l-723 270v246z" />
    <glyph glyph-name="equal" unicode="=" horiz-adv-x="1054" 
d="M174 786h703v-180h-703v180zM174 428h703v-180h-703v180z" />
    <glyph glyph-name="greater" unicode="&#x3e;" horiz-adv-x="1071" 
d="M174 907l723 -270v-246l-723 -270v180l569 213l-569 215v178z" />
    <glyph glyph-name="question" unicode="?" horiz-adv-x="1357" 
d="M543 492v186h114q324 0 324 260q0 111 -67.5 180.5t-198.5 69.5q-158 0 -237 -79.5t-85 -225.5h-270q3 63 17 120.5t41 117.5t73.5 109t109.5 87.5t154.5 60t202.5 21.5q137 0 241 -34.5t166 -96t92.5 -140.5t30.5 -174q0 -221 -147 -341.5t-395 -120.5h-166zM555 0v233
h272v-233h-272z" />
    <glyph glyph-name="at" unicode="@" horiz-adv-x="2209" 
d="M1161 -410q-321 0 -553.5 102.5t-360.5 308.5t-128 499q0 212 65 386t188.5 298.5t309.5 193t420 68.5t417.5 -53.5t312.5 -159.5t197 -270.5t68 -380.5q0 -122 -27.5 -218.5t-74 -158.5t-112 -103t-137 -58t-153.5 -17h-233l-10 174q-38 -96 -127.5 -147.5t-216.5 -51.5
q-116 0 -202.5 39.5t-137 110t-75 160.5t-24.5 200q0 111 24.5 202t75 162t137 110.5t202.5 39.5q126 0 207.5 -43t132.5 -135v145h245v-788h54q48 0 88.5 19.5t76 63t56 124t20.5 190.5q0 331 -196.5 506.5t-587.5 175.5q-156 0 -283.5 -37.5t-217.5 -106t-151.5 -165.5
t-90.5 -214t-29 -253q0 -367 217 -555.5t612 -188.5h400v-174h-398zM1081 197q142 0 208.5 73.5t66.5 243.5t-66.5 243.5t-208.5 73.5q-144 0 -200 -72.5t-56 -244.5t56 -244.5t200 -72.5z" />
    <glyph glyph-name="A" unicode="A" horiz-adv-x="1509" 
d="M1184 0l-109 301h-637l-108 -301h-262l491 1362h397l492 -1362h-264zM512 506h487l-243 676z" />
    <glyph glyph-name="B" unicode="B" horiz-adv-x="1366" 
d="M981 705q133 -22 213 -104t80 -232q0 -171 -111.5 -270t-322.5 -99h-715v1362h729q104 0 182.5 -26t125 -72.5t69 -105.5t22.5 -130q0 -141 -76.5 -221t-195.5 -102zM782 1159h-395v-366h377q114 0 165.5 46.5t51.5 139.5q0 91 -45 135.5t-154 44.5zM793 203
q107 0 156.5 55t49.5 145q0 207 -235 207h-377v-407h406z" />
    <glyph glyph-name="C" unicode="C" horiz-adv-x="1576" 
d="M803 -35q-146 0 -264 37t-198.5 101.5t-135 155.5t-79 196.5t-24.5 226.5q0 118 25.5 223t80.5 196.5t136 157t199.5 103t263.5 37.5q168 0 291.5 -37t203 -109.5t122 -173.5t53.5 -237h-267q-18 169 -114 255.5t-289 86.5q-221 0 -326.5 -125.5t-105.5 -376.5
q0 -252 102.5 -377t321.5 -125q203 0 303 92t112 269h271q-10 -142 -52.5 -247t-123 -179.5t-207 -112t-299.5 -37.5z" />
    <glyph glyph-name="D" unicode="D" horiz-adv-x="1476" 
d="M748 1362q130 0 237.5 -36t182 -98.5t125.5 -148.5t74.5 -185t23.5 -210t-23.5 -211t-74.5 -187t-125.5 -150.5t-182 -99.5t-237.5 -36h-623v1362h623zM694 209q225 0 324.5 117t99.5 358t-99 355t-325 114h-307v-944h307z" />
    <glyph glyph-name="E" unicode="E" horiz-adv-x="1292" 
d="M387 209h793v-209h-1055v1362h1049v-209h-787v-358h725v-199h-725v-387z" />
    <glyph glyph-name="F" unicode="F" horiz-adv-x="1267" 
d="M1171 1153h-784v-377h719v-198h-719v-578h-262v1362h1046v-209z" />
    <glyph glyph-name="G" unicode="G" horiz-adv-x="1615" 
d="M758 -35q-166 0 -293.5 55.5t-205.5 154t-117.5 226.5t-39.5 281t42.5 281t127.5 226.5t224 154t321 55.5q317 0 479.5 -132t186.5 -374h-266q-19 146 -117 221.5t-287 75.5q-224 0 -331 -126t-107 -382q0 -254 103.5 -381t328.5 -127q375 0 422 350h-531v181h783v-705
h-228v276q-48 -143 -172.5 -227t-322.5 -84z" />
    <glyph glyph-name="H" unicode="H" horiz-adv-x="1452" 
d="M1065 1362h260v-1362h-260v594h-678v-594h-262v1362h262v-561h678v561z" />
    <glyph glyph-name="I" unicode="I" horiz-adv-x="1042" 
d="M918 1153h-267v-944h267v-209h-793v209h266v944h-266v209h793v-209z" />
    <glyph glyph-name="J" unicode="J" horiz-adv-x="911" 
d="M74 0v209h458v1153h263v-995q0 -196 -85.5 -281.5t-295.5 -85.5h-340z" />
    <glyph glyph-name="K" unicode="K" horiz-adv-x="1425" 
d="M797 786l553 -774v-12h-316l-413 598l-234 -252v-346h-262v1362h262v-682l602 682h340z" />
    <glyph glyph-name="L" unicode="L" horiz-adv-x="1079" 
d="M387 209h666v-209h-928v1362h262v-1153z" />
    <glyph glyph-name="M" unicode="M" horiz-adv-x="1869" 
d="M1743 1362v-1362h-260v1176l-387 -1176h-322l-387 1176v-1176h-262v1362h453l360 -1110l362 1110h443z" />
    <glyph glyph-name="N" unicode="N" horiz-adv-x="1509" 
d="M1128 1362h256v-1362h-440l-475 973q-57 120 -88 215v-1188h-256v1362h440l479 -981q40 -85 84 -205v1186z" />
    <glyph glyph-name="O" unicode="O" horiz-adv-x="1613" 
d="M807 -35q-147 0 -266 37.5t-200 102.5t-135.5 156.5t-79 196.5t-24.5 224q0 118 24.5 222t79 195.5t135 157.5t200 104t266.5 38t266 -38t200 -104t135 -158t78.5 -196t24.5 -221q0 -150 -40 -276t-122 -226.5t-220.5 -157.5t-321.5 -57zM375 682q0 -254 100.5 -378
t331.5 -124t330.5 124t99.5 378t-99.5 378t-330.5 124t-331.5 -124t-100.5 -378z" />
    <glyph glyph-name="P" unicode="P" horiz-adv-x="1308" 
d="M809 1362q111 0 195 -34t134 -93.5t74.5 -134t24.5 -162.5q0 -91 -24.5 -167.5t-74.5 -136.5t-134 -94t-195 -34h-420v-506h-264v1362h684zM733 713q122 0 177 60t55 163q0 221 -230 221h-346v-444h344z" />
    <glyph glyph-name="Q" unicode="Q" horiz-adv-x="1636" 
d="M102 694q0 148 39.5 272t121.5 222.5t221 154.5t323 56q148 0 268.5 -36.5t200.5 -99t134 -148t77.5 -180.5t23.5 -200q0 -193 -83 -329t-240 -205h360v-201h-741q-149 0 -268 35t-200 97t-135 150t-78 190.5t-24 221.5zM375 698q0 -245 100 -364t332 -119
q120 0 204 30.5t134.5 93.5t73 150.5t22.5 208.5q0 247 -99.5 366.5t-334.5 119.5q-232 0 -332 -120t-100 -366z" />
    <glyph glyph-name="R" unicode="R" horiz-adv-x="1361" 
d="M1214 342v-111q0 -93 27 -231h-258q-27 79 -27 225v90q0 242 -256 242h-313v-557h-262v1362h686q215 0 328.5 -99.5t113.5 -271.5q0 -138 -75.5 -230t-198.5 -122q56 -16 95 -36t73 -53.5t50.5 -85t16.5 -122.5zM770 748q114 0 162.5 53.5t48.5 159.5q0 196 -217 196
h-377v-409h383z" />
    <glyph glyph-name="S" unicode="S" horiz-adv-x="1359" 
d="M90 453h252q6 -138 92.5 -213.5t261.5 -75.5q89 0 150 14.5t95 42.5t48.5 64.5t14.5 85.5q0 166 -205 196l-310 41q-179 23 -271.5 118t-92.5 259q0 187 140 300.5t411 113.5q144 0 253.5 -34t177 -95t103.5 -138t43 -171h-256q-14 113 -94 177t-229 64
q-142 0 -213.5 -55.5t-71.5 -149.5q0 -150 170 -172l309 -43q197 -25 297.5 -119t100.5 -264q0 -432 -572 -432q-130 0 -233.5 26.5t-171 71.5t-113 108t-65.5 132t-21 148z" />
    <glyph glyph-name="T" unicode="T" horiz-adv-x="1320" 
d="M1251 1362v-209h-458v-1153h-263v1153h-460v209h1181z" />
    <glyph glyph-name="U" unicode="U" horiz-adv-x="1425" 
d="M123 504v858h262v-823q0 -108 20 -178.5t64 -109.5t101.5 -54t142.5 -15t142.5 15t101 54t63.5 109.5t20 178.5v823h263v-858q0 -262 -149 -399.5t-441 -137.5q-293 0 -441.5 137t-148.5 400z" />
    <glyph glyph-name="V" unicode="V" horiz-adv-x="1462" 
d="M1128 1362h265l-471 -1362h-381l-471 1362h270l324 -930q15 -45 71 -233q30 119 70 233z" />
    <glyph glyph-name="W" unicode="W" horiz-adv-x="2144" 
d="M1796 1362h258l-274 -1362h-445l-262 1159l-264 -1159h-442l-277 1362h260l244 -1210l278 1210h402l276 -1206z" />
    <glyph glyph-name="X" unicode="X" horiz-adv-x="1513" 
d="M1442 0h-326l-371 489l-352 -489h-317l518 690l-510 672h319l361 -473l344 473h311l-501 -674z" />
    <glyph glyph-name="Y" unicode="Y" horiz-adv-x="1390" 
d="M1051 1362h290l-516 -930v-432h-260v432l-516 930h295l248 -500q44 -91 102 -217q5 12 105 217z" />
    <glyph glyph-name="Z" unicode="Z" horiz-adv-x="1406" 
d="M453 209h847v-209h-1177v209l844 944h-832v209h1159v-209z" />
    <glyph glyph-name="bracketleft" unicode="[" horiz-adv-x="1095" 
d="M1004 1341h-582v-1546h582v-205h-838v1956h838v-205z" />
    <glyph glyph-name="backslash" unicode="\" horiz-adv-x="768" 
d="M748 0h-232l-496 1362h232z" />
    <glyph glyph-name="bracketright" unicode="]" horiz-adv-x="1097" 
d="M930 1546v-1956h-838v205h582v1546h-582v205h838z" />
    <glyph glyph-name="asciicircum" unicode="^" horiz-adv-x="1107" 
d="M934 764h-180l-199 442l-201 -442h-180l272 598h216z" />
    <glyph glyph-name="underscore" unicode="_" horiz-adv-x="958" 
d="M59 0h840v-180h-840v180z" />
    <glyph glyph-name="grave" unicode="`" horiz-adv-x="1228" 
d="M66 1229l57 170l475 -185l-31 -75z" />
    <glyph glyph-name="a" unicode="a" horiz-adv-x="1161" 
d="M440 -27q-156 0 -248 80.5t-92 218.5q0 130 74 207.5t252 106.5l248 43q73 12 104 36.5t31 73.5q0 66 -45.5 100.5t-157.5 34.5q-221 0 -233 -176h-250q3 165 129 263t348 98q218 0 330 -89t112 -245v-475q0 -100 13 -250h-226q-12 111 -12 225q-37 -111 -131.5 -181.5
t-245.5 -70.5zM514 156q138 0 216.5 92.5t78.5 243.5v55q-56 -43 -176 -70l-113 -26q-90 -22 -129 -58t-39 -100q0 -66 44.5 -101.5t117.5 -35.5z" />
    <glyph glyph-name="b" unicode="b" horiz-adv-x="1310" 
d="M754 1057q121 0 213.5 -43t148 -118.5t83.5 -172.5t28 -211t-28 -211t-83.5 -172.5t-148 -118.5t-213.5 -43q-263 0 -373 197v-164h-254v1434h254v-574q110 197 373 197zM684 168q155 0 222 83t67 261t-67 261t-222 83q-153 0 -228 -84t-75 -260t75 -260t228 -84z" />
    <glyph glyph-name="c" unicode="c" horiz-adv-x="1224" 
d="M86 512q0 113 33.5 210t98.5 172.5t170.5 119t240.5 43.5q243 0 374.5 -119.5t139.5 -312.5h-244q-11 106 -75 168.5t-189 62.5q-144 0 -219.5 -80t-75.5 -264q0 -187 73.5 -265.5t217.5 -78.5q128 0 195.5 66t80.5 174h244q-3 -89 -37 -167t-96 -140t-161.5 -98
t-223.5 -36q-136 0 -242.5 43.5t-172 119t-99 172.5t-33.5 210z" />
    <glyph glyph-name="d" unicode="d" horiz-adv-x="1312" 
d="M932 1434h254v-1434h-254v164q-115 -197 -373 -197q-97 0 -176.5 28.5t-134.5 78t-92.5 118.5t-54.5 149t-17 171t17 171t54.5 149t92.5 118.5t134.5 78t176.5 28.5q258 0 373 -197v574zM627 168q153 0 229 84t76 260t-76 260t-229 84q-154 0 -220.5 -83t-66.5 -261
t66.5 -261t220.5 -83z" />
    <glyph glyph-name="e" unicode="e" horiz-adv-x="1210" 
d="M627 147q211 0 262 162h239q-7 -50 -26 -95t-58.5 -91.5t-94.5 -80t-140.5 -54.5t-190.5 -21q-138 0 -243 43.5t-166.5 120t-92 173t-30.5 210.5t32.5 211t96 172t167 117.5t236.5 42.5q130 0 230 -42t161.5 -116t92.5 -168.5t31 -206.5q0 -36 -7 -80h-794
q13 -161 88.5 -229t206.5 -68zM623 879q-126 0 -197.5 -61t-89.5 -206h553q-15 267 -266 267z" />
    <glyph glyph-name="f" unicode="f" horiz-adv-x="813" 
d="M231 0v831h-178v125l178 74v123q0 138 79 209.5t261 71.5h242v-187h-356v-223h299v-193h-271v-831h-254z" />
    <glyph glyph-name="g" unicode="g" horiz-adv-x="1310" 
d="M930 1024h254v-1001q0 -229 -129.5 -342t-421.5 -113q-243 0 -376.5 100.5t-147.5 282.5h251q19 -197 281 -197q153 0 221 58t68 196v191q-107 -170 -363 -170q-121 0 -214.5 38.5t-151 108.5t-86.5 162t-29 203q0 112 29 204t86.5 161.5t151 108t214.5 38.5
q255 0 363 -179v150zM641 219q151 0 220 76.5t69 243.5q0 166 -69 241.5t-220 75.5q-160 0 -229.5 -72.5t-69.5 -244.5q0 -173 69.5 -246.5t229.5 -73.5z" />
    <glyph glyph-name="h" unicode="h" horiz-adv-x="1245" 
d="M754 1057q198 0 287 -107.5t89 -316.5v-633h-253v602q0 134 -54.5 190t-156.5 56q-139 0 -210 -95.5t-71 -303.5v-449h-254v1434h254v-627q107 250 369 250z" />
    <glyph glyph-name="i" unicode="i" horiz-adv-x="516" 
d="M111 1167v195h295v-195h-295zM131 0v1024h254v-1024h-254z" />
    <glyph glyph-name="j" unicode="j" horiz-adv-x="520" 
d="M121 1167v195h295v-195h-295zM-164 -410v203h305v1231h254v-1100q0 -173 -81 -253.5t-277 -80.5h-201z" />
    <glyph glyph-name="k" unicode="k" horiz-adv-x="1228" 
d="M891 0l-330 436l-176 -170v-266h-254v1434h254v-906q59 79 104 127l373 369h305v-6l-444 -426l477 -592h-309z" />
    <glyph glyph-name="l" unicode="l" horiz-adv-x="516" 
d="M131 0v1434h254v-1434h-254z" />
    <glyph glyph-name="m" unicode="m" horiz-adv-x="1925" 
d="M1446 1057q185 0 275.5 -109t90.5 -315v-633h-253v604q0 244 -201 244q-132 0 -197 -95t-65 -304v-449h-250v604q0 244 -201 244q-129 0 -194.5 -95t-65.5 -304v-449h-254v1024h254v-205q104 238 356 238q269 0 336 -252q101 252 369 252z" />
    <glyph glyph-name="n" unicode="n" horiz-adv-x="1245" 
d="M754 1057q198 0 287 -107.5t89 -316.5v-633h-253v602q0 134 -54.5 190t-156.5 56q-139 0 -210 -95.5t-71 -303.5v-449h-254v1024h254v-217q107 250 369 250z" />
    <glyph glyph-name="o" unicode="o" horiz-adv-x="1265" 
d="M633 -33q-139 0 -246 43.5t-171.5 120t-97 173t-32.5 210.5q0 112 32.5 208t97 172t171.5 119.5t246 43.5q112 0 204 -29t155 -79t106.5 -119t63.5 -148.5t20 -167.5q0 -113 -32.5 -209.5t-97.5 -173t-172.5 -120.5t-246.5 -44zM340 512q0 -185 69.5 -264.5t223.5 -79.5
t223.5 79.5t69.5 264.5t-69.5 264.5t-223.5 79.5t-223.5 -79.5t-69.5 -264.5z" />
    <glyph glyph-name="p" unicode="p" horiz-adv-x="1310" 
d="M754 1057q97 0 176.5 -28t134 -77.5t91.5 -118.5t54 -149.5t17 -171.5q0 -114 -28 -211t-83.5 -172.5t-148 -118.5t-213.5 -43q-261 0 -373 197v-574h-254v1434h254v-162q111 195 373 195zM684 168q155 0 222 83t67 261t-67 261t-222 83q-153 0 -228 -84t-75 -260
t75 -260t228 -84z" />
    <glyph glyph-name="q" unicode="q" horiz-adv-x="1312" 
d="M932 1024h254v-1434h-254v576q-115 -199 -373 -199q-97 0 -176.5 28.5t-134.5 78t-92.5 118.5t-54.5 149t-17 171q0 115 28 212t84.5 172.5t149 118t213.5 42.5q260 0 373 -197v164zM627 168q153 0 229 84t76 260t-76 260t-229 84q-154 0 -220.5 -83t-66.5 -261
t66.5 -261t220.5 -83z" />
    <glyph glyph-name="r" unicode="r" horiz-adv-x="821" 
d="M719 1040h49v-245h-76q-172 0 -239.5 -98t-67.5 -300v-397h-254v1024h248v-238q89 254 340 254z" />
    <glyph glyph-name="s" unicode="s" horiz-adv-x="1079" 
d="M61 338h234q6 -89 72 -144t192 -55q114 0 159.5 34.5t45.5 102.5q0 57 -35 90.5t-115 43.5l-241 34q-139 19 -212 93t-73 196q0 157 119 241.5t325 84.5q204 0 326.5 -87t134.5 -243h-241q-8 71 -64.5 114.5t-159.5 43.5q-102 0 -151 -35t-49 -94q0 -99 133 -117l219 -29
q180 -25 255 -103t75 -212q0 -330 -457 -330q-127 0 -223.5 29t-153.5 81t-85.5 117t-29.5 144z" />
    <glyph glyph-name="t" unicode="t" horiz-adv-x="839" 
d="M561 0q-194 0 -268 79.5t-74 256.5v495h-190v125l211 80l104 226h129v-238h311v-193h-311v-628h287v-203h-199z" />
    <glyph glyph-name="u" unicode="u" horiz-adv-x="1245" 
d="M860 1024h254v-1024h-254v209q-105 -242 -362 -242q-383 0 -383 424v633h254v-600q0 -135 56 -191.5t163 -56.5q129 0 200.5 101t71.5 298v449z" />
    <glyph glyph-name="v" unicode="v" horiz-adv-x="1161" 
d="M883 1024h243l-372 -1024h-348l-373 1024h260l295 -817z" />
    <glyph glyph-name="w" unicode="w" horiz-adv-x="1837" 
d="M1552 1024h242l-289 -1024h-356l-229 743l-232 -743h-358l-287 1024h258l225 -834l273 834h260l272 -838z" />
    <glyph glyph-name="x" unicode="x" horiz-adv-x="1153" 
d="M37 0l391 506l-389 518h299l246 -352l241 352h279l-379 -506l399 -518h-301l-252 356l-252 -356h-282z" />
    <glyph glyph-name="y" unicode="y" horiz-adv-x="1169" 
d="M893 1024h244l-396 -1085q-27 -78 -49.5 -127t-56.5 -95.5t-75.5 -71.5t-101.5 -40t-141 -15h-217v203h351l81 217h-124l-369 1014h260l252 -686l47 -145l45 145z" />
    <glyph glyph-name="z" unicode="z" horiz-adv-x="1114" 
d="M395 188h633v-188h-936v188l631 648h-623v188h922v-188z" />
    <glyph glyph-name="braceleft" unicode="{" horiz-adv-x="872" 
d="M82 481v197h59q86 0 123 43.5t37 140.5v328q0 90 27.5 161t86 126.5t159 85.5t237.5 30v-104q-133 -5 -196.5 -81.5t-63.5 -242.5v-319q0 -204 -189 -244v-43q189 -40 189 -244v-321q0 -166 63.5 -242.5t196.5 -81.5v-104q-137 0 -237.5 30t-159 85.5t-86 126.5
t-27.5 161v328q0 97 -37 140.5t-123 43.5h-59z" />
    <glyph glyph-name="bar" unicode="|" horiz-adv-x="604" 
d="M174 -410v1956h256v-1956h-256z" />
    <glyph glyph-name="braceright" unicode="}" horiz-adv-x="872" 
d="M791 481h-60q-86 0 -123 -43.5t-37 -140.5v-328q0 -90 -27.5 -161t-85.5 -126.5t-158 -85.5t-237 -30v104q133 5 197 81.5t64 242.5v321q0 205 186 244v43q-186 39 -186 244v319q0 166 -64 242.5t-197 81.5v104q137 0 237 -30t158 -85.5t85.5 -126.5t27.5 -161v-328
q0 -97 37 -140.5t123 -43.5h60v-197z" />
    <glyph glyph-name="asciitilde" unicode="~" horiz-adv-x="1067" 
d="M721 350q-61 0 -118.5 24.5t-93 54.5t-72 54.5t-60.5 24.5q-45 0 -45 -55v-95h-158v152q0 80 47.5 119t124.5 39q52 0 98.5 -16.5t80 -40t62 -47t55 -40t48.5 -16.5q45 0 45 55v94h158v-147q0 -78 -52 -119t-120 -41z" />
    <glyph glyph-name="exclamdown" unicode="&#xa1;" horiz-adv-x="505" 
d="M117 1024h272v-233h-272v233zM168 604h170l43 -942h-256z" />
    <glyph glyph-name="cent" unicode="&#xa2;" horiz-adv-x="1089" 
d="M926 834q-3 -121 -75.5 -206.5t-199.5 -109.5v-153h-196v155q-139 27 -215 129.5t-76 249.5q0 149 76 251.5t215 129.5v154h196v-154q127 -25 196.5 -106t72.5 -203h-185q-7 79 -52.5 120.5t-125.5 41.5q-101 0 -150 -56t-49 -178q0 -123 47 -178t148 -55q169 0 188 168
h185z" />
    <glyph glyph-name="sterling" unicode="&#xa3;" horiz-adv-x="1191" 
d="M569 188h469v-188h-884v188h161v287h-149v174h149v129h-149v174h149v148q0 173 81.5 253.5t277.5 80.5h305v-203h-410v-279h310v-174h-310v-129h310v-174h-310v-287z" />
    <glyph glyph-name="yen" unicode="&#xa5;" horiz-adv-x="1390" 
d="M1341 1362l-417 -752h213v-149h-295l-17 -29v-74h312v-149h-312v-209h-260v209h-311v149h311v74l-16 29h-295v149h213l-418 752h295l248 -500q28 -57 102 -237q64 154 105 237l252 500h290z" />
    <glyph glyph-name="brokenbar" unicode="&#xa6;" horiz-adv-x="604" 
d="M174 739v807h256v-807h-256zM174 -410v807h256v-807h-256z" />
    <glyph glyph-name="section" unicode="&#xa7;" horiz-adv-x="1212" 
d="M160 -68h200q6 -213 256 -213q119 0 173.5 35.5t54.5 112.5q0 60 -36.5 93t-111.5 44l-233 31q-134 17 -206.5 93.5t-72.5 201.5q0 299 434 317q117 5 167.5 38t50.5 108q0 119 -150 137l-231 31q-134 17 -206.5 93t-72.5 201q0 146 112 230t310 84q206 0 316.5 -88.5
t119.5 -249.5h-203q-21 180 -231 180q-102 0 -158.5 -38t-56.5 -107q0 -103 123 -121l231 -31q308 -40 308 -299q0 -162 -105.5 -240.5t-335.5 -93.5q-111 -8 -161 -39.5t-50 -95.5q0 -108 121 -125l234 -33q303 -40 303 -299q0 -164 -107 -246.5t-332 -82.5
q-222 0 -337 98.5t-117 273.5z" />
    <glyph glyph-name="dieresis" unicode="&#xa8;" horiz-adv-x="1228" 
d="M104 1167v195h258v-195h-258zM537 1167v195h258v-195h-258z" />
    <glyph glyph-name="copyright" unicode="&#xa9;" horiz-adv-x="1783" 
d="M893 -37q-152 0 -288 56.5t-233.5 153t-154.5 229.5t-57 280q0 194 96.5 358.5t265.5 261.5t371 97q151 0 287 -57t233 -153.5t154 -229t57 -277.5q0 -147 -57 -280t-154.5 -229.5t-233 -153t-286.5 -56.5zM893 156q149 0 270 70t188.5 190.5t67.5 265.5q0 143 -67.5 263
t-189 190.5t-269.5 70.5t-270 -70.5t-190 -190.5t-68 -263q0 -145 68 -265.5t189.5 -190.5t270.5 -70zM530 682q0 164 97.5 266.5t271.5 102.5q162 0 254 -83t92 -223h-180q-9 152 -162 152q-93 0 -137.5 -51t-44.5 -164q0 -114 42.5 -163.5t137.5 -49.5q158 0 170 158h182
q0 -137 -95.5 -225.5t-254.5 -88.5q-175 0 -274 103t-99 266z" />
    <glyph glyph-name="guillemotleft" unicode="&#xab;" horiz-adv-x="1474" 
d="M111 500v26l411 498h281l-434 -512l434 -512h-281zM682 500v26l410 498h280l-432 -512l432 -512h-280z" />
    <glyph glyph-name="logicalnot" unicode="&#xac;" horiz-adv-x="1187" 
d="M1014 610v-397h-189v217h-651v180h840z" />
    <glyph glyph-name="registered" unicode="&#xae;" horiz-adv-x="1224" 
d="M610 1399q100 0 191.5 -39t157 -104t104.5 -155t39 -188q0 -134 -66.5 -247.5t-179.5 -178.5t-246 -65q-132 0 -244 65t-177.5 178t-65.5 248q0 131 65 243t177 177.5t245 65.5zM612 557q148 0 247 104t99 252t-99 250.5t-247 102.5q-149 0 -248.5 -103t-99.5 -250
t99.5 -251.5t248.5 -104.5zM836 1020q0 -51 -31 -83t-90 -38q55 -4 79.5 -30.5t24.5 -75.5v-31q0 -58 12 -92h-120q-13 35 -13 90v31q0 34 -15 50.5t-50 16.5h-90v-188h-123v485h248q77 0 122.5 -35.5t45.5 -99.5zM641 950q64 0 64 56q0 53 -60 53h-102v-109h98z" />
    <glyph glyph-name="macron" unicode="&#xaf;" horiz-adv-x="1228" 
d="M195 1362h723v-166h-723v166z" />
    <glyph glyph-name="degree" unicode="&#xb0;" horiz-adv-x="894" 
d="M446 772q-161 0 -257.5 102.5t-96.5 249.5q0 143 96.5 242.5t257.5 99.5q163 0 260 -99.5t97 -242.5q0 -147 -97 -249.5t-260 -102.5zM268 1122q0 -82 52 -133t126 -51q76 0 127.5 50.5t51.5 133.5t-51 130.5t-128 47.5q-76 0 -127 -47.5t-51 -130.5z" />
    <glyph glyph-name="plusminus" unicode="&#xb1;" horiz-adv-x="1196" 
d="M692 788h330v-170h-330v-233h-188v233h-330v170h330v236h188v-236zM174 113v170h848v-170h-848z" />
    <glyph glyph-name="acute" unicode="&#xb4;" horiz-adv-x="1228" 
d="M594 1229l-504 -90l-29 75l474 185z" />
    <glyph glyph-name="uni00B5" unicode="&#xb5;" horiz-adv-x="1245" 
d="M860 1024h254v-1024h-254v197q-99 -230 -346 -230q-88 0 -160 35v-412h-239v1434h254v-600q0 -135 56 -191.5t163 -56.5q129 0 200.5 101t71.5 298v449z" />
    <glyph glyph-name="paragraph" unicode="&#xb6;" horiz-adv-x="1538" 
d="M979 1362v-1772h-262v916h-166q-111 0 -195 34t-134 94t-74.5 136.5t-24.5 167.5q0 88 24.5 162.5t74.5 134t134 93.5t195 34h428zM1110 1362h264v-1772h-264v1772z" />
    <glyph glyph-name="periodcentered" unicode="&#xb7;" horiz-adv-x="346" 
d="M37 389v234h272v-234h-272z" />
    <glyph glyph-name="cedilla" unicode="&#xb8;" horiz-adv-x="1228" 
d="M145 -358v163h158l-67 271h186l61 -256q20 -83 -18 -130.5t-115 -47.5h-205z" />
    <glyph glyph-name="guillemotright" unicode="&#xbb;" horiz-adv-x="1474" 
d="M793 500l-410 -500h-281l435 512l-435 512h281l410 -498v-26zM1364 500l-412 -500h-278l432 512l-432 512h278l412 -498v-26z" />
    <glyph glyph-name="questiondown" unicode="&#xbf;" horiz-adv-x="1357" 
d="M805 1024v-233h-275v233h275zM817 532v-186h-117q-91 0 -155 -19.5t-99.5 -55.5t-51 -81t-15.5 -102q0 -113 67 -182.5t197 -69.5q308 0 324 305h268q-4 -76 -22 -144.5t-61.5 -138.5t-108 -120t-169 -81.5t-237.5 -31.5q-137 0 -240.5 34.5t-165.5 96t-92 140.5t-30 174
q0 222 146 342t394 120h168z" />
    <glyph glyph-name="Agrave" unicode="&#xc0;" horiz-adv-x="1509" 
d="M1026 1552l-31 -75l-501 90l57 170zM1184 0l-109 301h-637l-108 -301h-262l491 1362h397l492 -1362h-264zM512 506h487l-243 676z" />
    <glyph glyph-name="Aacute" unicode="&#xc1;" horiz-adv-x="1509" 
d="M1026 1567l-504 -90l-28 75l473 185zM1184 0l-109 301h-637l-108 -301h-262l491 1362h397l492 -1362h-264zM512 506h487l-243 676z" />
    <glyph glyph-name="Acircumflex" unicode="&#xc2;" horiz-adv-x="1509" 
d="M758 1647l-221 -152l-99 104l236 152h170l233 -152l-96 -104zM1184 0l-109 301h-637l-108 -301h-262l491 1362h397l492 -1362h-264zM512 506h487l-243 676z" />
    <glyph glyph-name="Atilde" unicode="&#xc3;" horiz-adv-x="1509" 
d="M582 1556v-38h-168v59q0 80 49.5 117t128.5 37q57 0 117 -23.5t107.5 -46.5t74.5 -23q43 0 43 50v38h168v-57q0 -80 -50 -118t-128 -38q-48 0 -109.5 23.5t-113 46.5t-74.5 23q-45 0 -45 -50zM1184 0l-109 301h-637l-108 -301h-262l491 1362h397l492 -1362h-264zM512 506
h487l-243 676z" />
    <glyph glyph-name="Adieresis" unicode="&#xc4;" horiz-adv-x="1509" 
d="M690 1696v-195h-258v195h258zM1085 1696v-195h-258v195h258zM1184 0l-109 301h-637l-108 -301h-262l491 1362h397l492 -1362h-264zM512 506h487l-243 676z" />
    <glyph glyph-name="Aring" unicode="&#xc5;" horiz-adv-x="1509" 
d="M758 1444q-87 0 -138 54.5t-51 133.5q0 76 51 130.5t138 54.5t138.5 -54.5t51.5 -130.5q0 -79 -51.5 -133.5t-138.5 -54.5zM758 1706q-29 0 -50.5 -20t-21.5 -54q0 -35 21.5 -55.5t50.5 -20.5q30 0 50.5 20t20.5 56q0 34 -20.5 54t-50.5 20zM1184 0l-109 301h-637
l-108 -301h-262l491 1362h397l492 -1362h-264zM512 506h487l-243 676z" />
    <glyph glyph-name="AE" unicode="&#xc6;" horiz-adv-x="2199" 
d="M1294 209h793v-209h-1055v301h-534l-187 -301h-260v10l836 1352h1194v-209h-787v-358h725v-199h-725v-387zM625 506h407v661z" />
    <glyph glyph-name="Ccedilla" unicode="&#xc7;" horiz-adv-x="1576" 
d="M1485 541q-19 -263 -154 -405.5t-416 -166.5l37 -149q20 -83 -18 -130.5t-115 -47.5h-205v163h158l-41 162q-130 9 -235.5 50t-178 106t-121.5 153.5t-71.5 189.5t-22.5 216q0 118 25.5 223t80.5 196.5t136 157t199.5 103t263.5 37.5q168 0 291.5 -37t203 -109.5
t122 -173.5t53.5 -237h-267q-18 169 -114 255.5t-289 86.5q-221 0 -326.5 -125.5t-105.5 -376.5q0 -252 102.5 -377t321.5 -125q203 0 303 92t112 269h271z" />
    <glyph glyph-name="Egrave" unicode="&#xc8;" horiz-adv-x="1292" 
d="M905 1552l-31 -75l-501 90l57 170zM387 209h793v-209h-1055v1362h1049v-209h-787v-358h725v-199h-725v-387z" />
    <glyph glyph-name="Eacute" unicode="&#xc9;" horiz-adv-x="1292" 
d="M905 1567l-504 -90l-28 75l473 185zM387 209h793v-209h-1055v1362h1049v-209h-787v-358h725v-199h-725v-387z" />
    <glyph glyph-name="Ecircumflex" unicode="&#xca;" horiz-adv-x="1292" 
d="M637 1647l-221 -152l-99 104l236 152h170l233 -152l-96 -104zM387 209h793v-209h-1055v1362h1049v-209h-787v-358h725v-199h-725v-387z" />
    <glyph glyph-name="Edieresis" unicode="&#xcb;" horiz-adv-x="1292" 
d="M569 1696v-195h-258v195h258zM965 1696v-195h-258v195h258zM387 209h793v-209h-1055v1362h1049v-209h-787v-358h725v-199h-725v-387z" />
    <glyph glyph-name="Igrave" unicode="&#xcc;" horiz-adv-x="1042" 
d="M788 1552l-30 -75l-502 90l57 170zM918 1153h-267v-944h267v-209h-793v209h266v944h-266v209h793v-209z" />
    <glyph glyph-name="Iacute" unicode="&#xcd;" horiz-adv-x="1042" 
d="M788 1567l-503 -90l-29 75l473 185zM918 1153h-267v-944h267v-209h-793v209h266v944h-266v209h793v-209z" />
    <glyph glyph-name="Icircumflex" unicode="&#xce;" horiz-adv-x="1042" 
d="M520 1647l-221 -152l-98 104l235 152h170l234 -152l-97 -104zM918 1153h-267v-944h267v-209h-793v209h266v944h-266v209h793v-209z" />
    <glyph glyph-name="Idieresis" unicode="&#xcf;" horiz-adv-x="1042" 
d="M453 1696v-195h-258v195h258zM848 1696v-195h-258v195h258zM918 1153h-267v-944h267v-209h-793v209h266v944h-266v209h793v-209z" />
    <glyph glyph-name="Eth" unicode="&#xd0;" horiz-adv-x="1638" 
d="M911 1362q130 0 237 -36t181.5 -98.5t125.5 -148.5t75 -185.5t24 -209.5q0 -111 -24 -211t-75 -187t-125.5 -150.5t-181.5 -99.5t-237 -36h-622v580h-230v192h230v590h622zM856 209q226 0 325 117t99 358t-99 355t-325 114h-307v-381h350v-192h-350v-371h307z" />
    <glyph glyph-name="Ntilde" unicode="&#xd1;" horiz-adv-x="1509" 
d="M580 1556v-38h-168v59q0 80 49.5 117t128.5 37q57 0 117 -23.5t107.5 -46.5t74.5 -23q43 0 43 50v38h168v-57q0 -80 -50 -118t-128 -38q-48 0 -109.5 23.5t-113 46.5t-74.5 23q-45 0 -45 -50zM1128 1362h256v-1362h-440l-475 973q-57 120 -88 215v-1188h-256v1362h440
l479 -981q40 -85 84 -205v1186z" />
    <glyph glyph-name="Ograve" unicode="&#xd2;" horiz-adv-x="1613" 
d="M541 1567l57 170l475 -185l-31 -75zM807 -35q-147 0 -266 37.5t-200 102.5t-135.5 156.5t-79 196.5t-24.5 224q0 118 24.5 222t79 195.5t135 157.5t200 104t266.5 38t266 -38t200 -104t135 -158t78.5 -196t24.5 -221q0 -150 -40 -276t-122 -226.5t-220.5 -157.5
t-321.5 -57zM375 682q0 -254 100.5 -378t331.5 -124t330.5 124t99.5 378t-99.5 378t-330.5 124t-331.5 -124t-100.5 -378z" />
    <glyph glyph-name="Oacute" unicode="&#xd3;" horiz-adv-x="1613" 
d="M1073 1567l-504 -90l-28 75l473 185zM807 -35q-147 0 -266 37.5t-200 102.5t-135.5 156.5t-79 196.5t-24.5 224q0 118 24.5 222t79 195.5t135 157.5t200 104t266.5 38t266 -38t200 -104t135 -158t78.5 -196t24.5 -221q0 -150 -40 -276t-122 -226.5t-220.5 -157.5
t-321.5 -57zM375 682q0 -254 100.5 -378t331.5 -124t330.5 124t99.5 378t-99.5 378t-330.5 124t-331.5 -124t-100.5 -378z" />
    <glyph glyph-name="Ocircumflex" unicode="&#xd4;" horiz-adv-x="1613" 
d="M487 1599l236 152h170l233 -152l-96 -104l-223 152l-221 -152zM807 -35q-147 0 -266 37.5t-200 102.5t-135.5 156.5t-79 196.5t-24.5 224q0 118 24.5 222t79 195.5t135 157.5t200 104t266.5 38t266 -38t200 -104t135 -158t78.5 -196t24.5 -221q0 -150 -40 -276
t-122 -226.5t-220.5 -157.5t-321.5 -57zM375 682q0 -254 100.5 -378t331.5 -124t330.5 124t99.5 378t-99.5 378t-330.5 124t-331.5 -124t-100.5 -378z" />
    <glyph glyph-name="Otilde" unicode="&#xd5;" horiz-adv-x="1613" 
d="M973 1513q-48 0 -109.5 23.5t-113 46.5t-74.5 23q-45 0 -45 -50v-38h-168v59q0 80 49.5 117t128.5 37q57 0 117 -23.5t107.5 -46.5t74.5 -23q43 0 43 50v38h168v-57q0 -80 -50 -118t-128 -38zM807 -35q-147 0 -266 37.5t-200 102.5t-135.5 156.5t-79 196.5t-24.5 224
q0 118 24.5 222t79 195.5t135 157.5t200 104t266.5 38t266 -38t200 -104t135 -158t78.5 -196t24.5 -221q0 -150 -40 -276t-122 -226.5t-220.5 -157.5t-321.5 -57zM375 682q0 -254 100.5 -378t331.5 -124t330.5 124t99.5 378t-99.5 378t-330.5 124t-331.5 -124t-100.5 -378z
" />
    <glyph glyph-name="Odieresis" unicode="&#xd6;" horiz-adv-x="1613" 
d="M479 1501v195h258v-195h-258zM874 1501v195h259v-195h-259zM807 -35q-147 0 -266 37.5t-200 102.5t-135.5 156.5t-79 196.5t-24.5 224q0 118 24.5 222t79 195.5t135 157.5t200 104t266.5 38t266 -38t200 -104t135 -158t78.5 -196t24.5 -221q0 -150 -40 -276t-122 -226.5
t-220.5 -157.5t-321.5 -57zM375 682q0 -254 100.5 -378t331.5 -124t330.5 124t99.5 378t-99.5 378t-330.5 124t-331.5 -124t-100.5 -378z" />
    <glyph glyph-name="multiply" unicode="&#xd7;" horiz-adv-x="1265" 
d="M1092 864l-330 -329l325 -326l-124 -125l-326 326l-330 -330l-133 133l330 330l-326 323l125 125l326 -323l329 329z" />
    <glyph glyph-name="Oslash" unicode="&#xd8;" horiz-adv-x="1613" 
d="M1161 1325q177 -86 263.5 -256t86.5 -387q0 -150 -40 -276t-122 -226.5t-220.5 -157.5t-321.5 -57q-77 0 -176 15l-139 -351l-183 68l135 344q-173 86 -257.5 254.5t-84.5 386.5q0 118 24.5 222t79 195.5t135 157.5t200 104t266.5 38q91 0 168 -15l98 248l182 -69z
M375 682q0 -316 153 -428l367 926q-58 4 -88 4q-231 0 -331.5 -124t-100.5 -378zM807 180q231 0 330.5 124t99.5 378q0 320 -158 432l-368 -928q47 -6 96 -6z" />
    <glyph glyph-name="Ugrave" unicode="&#xd9;" horiz-adv-x="1425" 
d="M446 1567l58 170l475 -185l-31 -75zM123 504v858h262v-823q0 -108 20 -178.5t64 -109.5t101.5 -54t142.5 -15t142.5 15t101 54t63.5 109.5t20 178.5v823h263v-858q0 -262 -149 -399.5t-441 -137.5q-293 0 -441.5 137t-148.5 400z" />
    <glyph glyph-name="Uacute" unicode="&#xda;" horiz-adv-x="1425" 
d="M979 1567l-504 -90l-29 75l474 185zM123 504v858h262v-823q0 -108 20 -178.5t64 -109.5t101.5 -54t142.5 -15t142.5 15t101 54t63.5 109.5t20 178.5v823h263v-858q0 -262 -149 -399.5t-441 -137.5q-293 0 -441.5 137t-148.5 400z" />
    <glyph glyph-name="Ucircumflex" unicode="&#xdb;" horiz-adv-x="1425" 
d="M393 1599l236 152h170l233 -152l-96 -104l-223 152l-221 -152zM123 504v858h262v-823q0 -108 20 -178.5t64 -109.5t101.5 -54t142.5 -15t142.5 15t101 54t63.5 109.5t20 178.5v823h263v-858q0 -262 -149 -399.5t-441 -137.5q-293 0 -441.5 137t-148.5 400z" />
    <glyph glyph-name="Udieresis" unicode="&#xdc;" horiz-adv-x="1425" 
d="M385 1501v195h258v-195h-258zM780 1501v195h258v-195h-258zM123 504v858h262v-823q0 -108 20 -178.5t64 -109.5t101.5 -54t142.5 -15t142.5 15t101 54t63.5 109.5t20 178.5v823h263v-858q0 -262 -149 -399.5t-441 -137.5q-293 0 -441.5 137t-148.5 400z" />
    <glyph glyph-name="Yacute" unicode="&#xdd;" horiz-adv-x="1390" 
d="M963 1567l-504 -90l-29 75l473 185zM1051 1362h290l-516 -930v-432h-260v432l-516 930h295l248 -500q44 -91 102 -217q5 12 105 217z" />
    <glyph glyph-name="Thorn" unicode="&#xde;" horiz-adv-x="1308" 
d="M809 1110q111 0 195 -34t134 -94t74.5 -135t24.5 -163q0 -91 -24.5 -167t-74.5 -136t-134 -93.5t-195 -33.5h-420v-254h-264v1362h264v-252h420zM733 459q232 0 232 225q0 219 -230 219h-346v-444h344z" />
    <glyph glyph-name="germandbls" unicode="&#xdf;" horiz-adv-x="1349" 
d="M125 0v901q0 245 145.5 368.5t452.5 123.5q136 0 238 -29t161.5 -80t88 -113.5t28.5 -136.5q0 -138 -78 -221.5t-196 -105.5q132 -20 212 -104t80 -234q0 -171 -111.5 -270t-322.5 -99h-260v203h213q109 0 159 55t50 145q0 209 -235 209h-187v199h182q222 0 222 186
q0 191 -254 191q-166 0 -246 -70t-80 -211v-907h-262z" />
    <glyph glyph-name="agrave" unicode="&#xe0;" horiz-adv-x="1161" 
d="M324 1229l57 170l475 -185l-31 -75zM440 -27q-156 0 -248 80.5t-92 218.5q0 130 74 207.5t252 106.5l248 43q73 12 104 36.5t31 73.5q0 66 -45.5 100.5t-157.5 34.5q-221 0 -233 -176h-250q3 165 129 263t348 98q218 0 330 -89t112 -245v-475q0 -100 13 -250h-226
q-12 111 -12 225q-37 -111 -131.5 -181.5t-245.5 -70.5zM514 156q138 0 216.5 92.5t78.5 243.5v55q-56 -43 -176 -70l-113 -26q-90 -22 -129 -58t-39 -100q0 -66 44.5 -101.5t117.5 -35.5z" />
    <glyph glyph-name="aacute" unicode="&#xe1;" horiz-adv-x="1161" 
d="M854 1229l-504 -90l-28 75l473 185zM440 -27q-156 0 -248 80.5t-92 218.5q0 130 74 207.5t252 106.5l248 43q73 12 104 36.5t31 73.5q0 66 -45.5 100.5t-157.5 34.5q-221 0 -233 -176h-250q3 165 129 263t348 98q218 0 330 -89t112 -245v-475q0 -100 13 -250h-226
q-12 111 -12 225q-37 -111 -131.5 -181.5t-245.5 -70.5zM514 156q138 0 216.5 92.5t78.5 243.5v55q-56 -43 -176 -70l-113 -26q-90 -22 -129 -58t-39 -100q0 -66 44.5 -101.5t117.5 -35.5z" />
    <glyph glyph-name="acircumflex" unicode="&#xe2;" horiz-adv-x="1161" 
d="M266 1219l236 151h170l233 -151l-96 -107l-223 154l-221 -154zM440 -27q-156 0 -248 80.5t-92 218.5q0 130 74 207.5t252 106.5l248 43q73 12 104 36.5t31 73.5q0 66 -45.5 100.5t-157.5 34.5q-221 0 -233 -176h-250q3 165 129 263t348 98q218 0 330 -89t112 -245v-475
q0 -100 13 -250h-226q-12 111 -12 225q-37 -111 -131.5 -181.5t-245.5 -70.5zM514 156q138 0 216.5 92.5t78.5 243.5v55q-56 -43 -176 -70l-113 -26q-90 -22 -129 -58t-39 -100q0 -66 44.5 -101.5t117.5 -35.5z" />
    <glyph glyph-name="atilde" unicode="&#xe3;" horiz-adv-x="1161" 
d="M752 1155q-48 0 -109.5 23t-113 46t-74.5 23q-45 0 -45 -49v-39h-168v60q0 80 49.5 116.5t128.5 36.5q57 0 117 -23t107.5 -46t74.5 -23q43 0 43 49v39h168v-57q0 -80 -50 -118t-128 -38zM440 -27q-156 0 -248 80.5t-92 218.5q0 130 74 207.5t252 106.5l248 43
q73 12 104 36.5t31 73.5q0 66 -45.5 100.5t-157.5 34.5q-221 0 -233 -176h-250q3 165 129 263t348 98q218 0 330 -89t112 -245v-475q0 -100 13 -250h-226q-12 111 -12 225q-37 -111 -131.5 -181.5t-245.5 -70.5zM514 156q138 0 216.5 92.5t78.5 243.5v55q-56 -43 -176 -70
l-113 -26q-90 -22 -129 -58t-39 -100q0 -66 44.5 -101.5t117.5 -35.5z" />
    <glyph glyph-name="adieresis" unicode="&#xe4;" horiz-adv-x="1161" 
d="M240 1167v195h258v-195h-258zM672 1167v195h258v-195h-258zM440 -27q-156 0 -248 80.5t-92 218.5q0 130 74 207.5t252 106.5l248 43q73 12 104 36.5t31 73.5q0 66 -45.5 100.5t-157.5 34.5q-221 0 -233 -176h-250q3 165 129 263t348 98q218 0 330 -89t112 -245v-475
q0 -100 13 -250h-226q-12 111 -12 225q-37 -111 -131.5 -181.5t-245.5 -70.5zM514 156q138 0 216.5 92.5t78.5 243.5v55q-56 -43 -176 -70l-113 -26q-90 -22 -129 -58t-39 -100q0 -66 44.5 -101.5t117.5 -35.5z" />
    <glyph glyph-name="aring" unicode="&#xe5;" horiz-adv-x="1161" 
d="M586 1139q-70 0 -112 43.5t-42 107.5q0 62 42 106t112 44q71 0 113 -43.5t42 -106.5q0 -64 -42 -107.5t-113 -43.5zM528 1290q0 -28 17 -45.5t41 -17.5q25 0 42 17t17 46q0 28 -16.5 45t-42.5 17q-24 0 -41 -17t-17 -45zM440 -27q-156 0 -248 80.5t-92 218.5
q0 130 74 207.5t252 106.5l248 43q73 12 104 36.5t31 73.5q0 66 -45.5 100.5t-157.5 34.5q-221 0 -233 -176h-250q3 165 129 263t348 98q218 0 330 -89t112 -245v-475q0 -100 13 -250h-226q-12 111 -12 225q-37 -111 -131.5 -181.5t-245.5 -70.5zM514 156q138 0 216.5 92.5
t78.5 243.5v55q-56 -43 -176 -70l-113 -26q-90 -22 -129 -58t-39 -100q0 -66 44.5 -101.5t117.5 -35.5z" />
    <glyph glyph-name="ae" unicode="&#xe6;" horiz-adv-x="1933" 
d="M1350 147q213 0 264 162h239q-8 -50 -27 -95t-58.5 -91.5t-94 -80t-140 -54.5t-190.5 -21q-324 0 -454 232q-61 -103 -173.5 -164.5t-248.5 -61.5q-159 0 -263 82t-104 217q0 130 74 207.5t252 106.5l248 43q73 12 104 36.5t31 73.5q0 66 -45.5 100.5t-157.5 34.5
q-221 0 -233 -176h-250q3 165 129 263t348 98q263 0 361 -141q139 139 382 139q130 0 229.5 -42t160.5 -116t91.5 -168.5t30.5 -206.5q0 -55 -4 -80h-794q13 -162 88 -229.5t205 -67.5zM1346 879q-126 0 -197 -61t-88 -206h551q-15 267 -266 267zM809 492v55
q-56 -43 -176 -70l-113 -26q-90 -22 -129 -58t-39 -100q0 -66 44.5 -101.5t117.5 -35.5q138 0 216.5 92.5t78.5 243.5z" />
    <glyph glyph-name="ccedilla" unicode="&#xe7;" horiz-adv-x="1224" 
d="M1151 408q-6 -163 -112 -284t-298 -149l37 -155q20 -83 -18 -130.5t-115 -47.5h-205v163h158l-41 166q-117 11 -208.5 58.5t-148 121t-85.5 165t-29 196.5q0 113 33.5 210t98.5 172.5t170.5 119t240.5 43.5q243 0 374.5 -119.5t139.5 -312.5h-244q-11 106 -75 168.5
t-189 62.5q-144 0 -219.5 -80t-75.5 -264q0 -187 73.5 -265.5t217.5 -78.5q128 0 195.5 66t80.5 174h244z" />
    <glyph glyph-name="egrave" unicode="&#xe8;" horiz-adv-x="1210" 
d="M877 1214l-31 -75l-502 90l57 170zM627 147q211 0 262 162h239q-7 -50 -26 -95t-58.5 -91.5t-94.5 -80t-140.5 -54.5t-190.5 -21q-138 0 -243 43.5t-166.5 120t-92 173t-30.5 210.5t32.5 211t96 172t167 117.5t236.5 42.5q130 0 230 -42t161.5 -116t92.5 -168.5
t31 -206.5q0 -36 -7 -80h-794q13 -161 88.5 -229t206.5 -68zM623 879q-126 0 -197.5 -61t-89.5 -206h553q-15 267 -266 267z" />
    <glyph glyph-name="eacute" unicode="&#xe9;" horiz-adv-x="1210" 
d="M874 1229l-503 -90l-29 75l473 185zM627 147q211 0 262 162h239q-7 -50 -26 -95t-58.5 -91.5t-94.5 -80t-140.5 -54.5t-190.5 -21q-138 0 -243 43.5t-166.5 120t-92 173t-30.5 210.5t32.5 211t96 172t167 117.5t236.5 42.5q130 0 230 -42t161.5 -116t92.5 -168.5
t31 -206.5q0 -36 -7 -80h-794q13 -161 88.5 -229t206.5 -68zM623 879q-126 0 -197.5 -61t-89.5 -206h553q-15 267 -266 267z" />
    <glyph glyph-name="ecircumflex" unicode="&#xea;" horiz-adv-x="1210" 
d="M608 1266l-221 -154l-98 107l235 151h170l234 -151l-97 -107zM627 147q211 0 262 162h239q-7 -50 -26 -95t-58.5 -91.5t-94.5 -80t-140.5 -54.5t-190.5 -21q-138 0 -243 43.5t-166.5 120t-92 173t-30.5 210.5t32.5 211t96 172t167 117.5t236.5 42.5q130 0 230 -42
t161.5 -116t92.5 -168.5t31 -206.5q0 -36 -7 -80h-794q13 -161 88.5 -229t206.5 -68zM623 879q-126 0 -197.5 -61t-89.5 -206h553q-15 267 -266 267z" />
    <glyph glyph-name="edieresis" unicode="&#xeb;" horiz-adv-x="1210" 
d="M520 1362v-195h-258v195h258zM952 1362v-195h-258v195h258zM627 147q211 0 262 162h239q-7 -50 -26 -95t-58.5 -91.5t-94.5 -80t-140.5 -54.5t-190.5 -21q-138 0 -243 43.5t-166.5 120t-92 173t-30.5 210.5t32.5 211t96 172t167 117.5t236.5 42.5q130 0 230 -42
t161.5 -116t92.5 -168.5t31 -206.5q0 -36 -7 -80h-794q13 -161 88.5 -229t206.5 -68zM623 879q-126 0 -197.5 -61t-89.5 -206h553q-15 267 -266 267z" />
    <glyph glyph-name="igrave" unicode="&#xec;" horiz-adv-x="516" 
d="M-8 1229l59 170l475 -185l-30 -75zM131 0v1024h254v-1024h-254z" />
    <glyph glyph-name="iacute" unicode="&#xed;" horiz-adv-x="516" 
d="M524 1229l-504 -90l-28 75l473 185zM131 0v1024h254v-1024h-254z" />
    <glyph glyph-name="icircumflex" unicode="&#xee;" horiz-adv-x="516" 
d="M-61 1219l235 151h170l234 -151l-97 -107l-223 154l-221 -154zM131 0v1024h254v-1024h-254z" />
    <glyph glyph-name="idieresis" unicode="&#xef;" horiz-adv-x="516" 
d="M-88 1167v195h258v-195h-258zM344 1167v195h258v-195h-258zM131 0v1024h254v-1024h-254z" />
    <glyph glyph-name="eth" unicode="&#xf0;" horiz-adv-x="1263" 
d="M895 1380q151 -112 218 -289t67 -460q0 -338 -135 -501t-412 -163q-142 0 -250 43t-172 119t-95.5 172t-31.5 211q0 114 28 209.5t84.5 170t149 116t213.5 41.5q260 0 373 -199q0 234 -187 379l-122 -125l-101 92l105 107q-72 37 -152 63l103 172q127 -43 198 -84
l121 123l100 -92zM627 168q153 0 229 84t76 260t-76 260t-229 84q-154 0 -220.5 -83t-66.5 -261t66.5 -261t220.5 -83z" />
    <glyph glyph-name="ntilde" unicode="&#xf1;" horiz-adv-x="1245" 
d="M446 1198v-39h-167v60q0 80 49.5 116.5t128.5 36.5q57 0 117 -23t107.5 -46t74.5 -23q43 0 43 49v39h168v-57q0 -80 -50 -118t-129 -38q-48 0 -109 23t-112.5 46t-74.5 23q-46 0 -46 -49zM754 1057q198 0 287 -107.5t89 -316.5v-633h-253v602q0 134 -54.5 190t-156.5 56
q-139 0 -210 -95.5t-71 -303.5v-449h-254v1024h254v-217q107 250 369 250z" />
    <glyph glyph-name="ograve" unicode="&#xf2;" horiz-adv-x="1265" 
d="M369 1229l57 170l475 -185l-31 -75zM633 -33q-139 0 -246 43.5t-171.5 120t-97 173t-32.5 210.5q0 112 32.5 208t97 172t171.5 119.5t246 43.5q112 0 204 -29t155 -79t106.5 -119t63.5 -148.5t20 -167.5q0 -113 -32.5 -209.5t-97.5 -173t-172.5 -120.5t-246.5 -44z
M340 512q0 -185 69.5 -264.5t223.5 -79.5t223.5 79.5t69.5 264.5t-69.5 264.5t-223.5 79.5t-223.5 -79.5t-69.5 -264.5z" />
    <glyph glyph-name="oacute" unicode="&#xf3;" horiz-adv-x="1265" 
d="M899 1229l-504 -90l-28 75l473 185zM633 -33q-139 0 -246 43.5t-171.5 120t-97 173t-32.5 210.5q0 112 32.5 208t97 172t171.5 119.5t246 43.5q112 0 204 -29t155 -79t106.5 -119t63.5 -148.5t20 -167.5q0 -113 -32.5 -209.5t-97.5 -173t-172.5 -120.5t-246.5 -44z
M340 512q0 -185 69.5 -264.5t223.5 -79.5t223.5 79.5t69.5 264.5t-69.5 264.5t-223.5 79.5t-223.5 -79.5t-69.5 -264.5z" />
    <glyph glyph-name="ocircumflex" unicode="&#xf4;" horiz-adv-x="1265" 
d="M313 1219l236 151h170l233 -151l-96 -107l-223 154l-221 -154zM633 -33q-139 0 -246 43.5t-171.5 120t-97 173t-32.5 210.5q0 112 32.5 208t97 172t171.5 119.5t246 43.5q112 0 204 -29t155 -79t106.5 -119t63.5 -148.5t20 -167.5q0 -113 -32.5 -209.5t-97.5 -173
t-172.5 -120.5t-246.5 -44zM340 512q0 -185 69.5 -264.5t223.5 -79.5t223.5 79.5t69.5 264.5t-69.5 264.5t-223.5 79.5t-223.5 -79.5t-69.5 -264.5z" />
    <glyph glyph-name="otilde" unicode="&#xf5;" horiz-adv-x="1265" 
d="M799 1155q-48 0 -109.5 23t-113 46t-74.5 23q-45 0 -45 -49v-39h-168v60q0 80 49.5 116.5t128.5 36.5q57 0 117 -23t107.5 -46t74.5 -23q43 0 43 49v39h168v-57q0 -80 -50 -118t-128 -38zM633 -33q-139 0 -246 43.5t-171.5 120t-97 173t-32.5 210.5q0 112 32.5 208
t97 172t171.5 119.5t246 43.5q112 0 204 -29t155 -79t106.5 -119t63.5 -148.5t20 -167.5q0 -113 -32.5 -209.5t-97.5 -173t-172.5 -120.5t-246.5 -44zM340 512q0 -185 69.5 -264.5t223.5 -79.5t223.5 79.5t69.5 264.5t-69.5 264.5t-223.5 79.5t-223.5 -79.5t-69.5 -264.5z
" />
    <glyph glyph-name="odieresis" unicode="&#xf6;" horiz-adv-x="1265" 
d="M287 1167v195h258v-195h-258zM719 1167v195h258v-195h-258zM633 -33q-139 0 -246 43.5t-171.5 120t-97 173t-32.5 210.5q0 112 32.5 208t97 172t171.5 119.5t246 43.5q112 0 204 -29t155 -79t106.5 -119t63.5 -148.5t20 -167.5q0 -113 -32.5 -209.5t-97.5 -173
t-172.5 -120.5t-246.5 -44zM340 512q0 -185 69.5 -264.5t223.5 -79.5t223.5 79.5t69.5 264.5t-69.5 264.5t-223.5 79.5t-223.5 -79.5t-69.5 -264.5z" />
    <glyph glyph-name="divide" unicode="&#xf7;" horiz-adv-x="1271" 
d="M635 754q-65 0 -104 41t-39 102q0 57 39 98t104 41t104 -41t39 -98q0 -61 -39 -102t-104 -41zM174 610h922v-180h-922v180zM635 6q-65 0 -104 41t-39 100q0 58 39 100t104 42t104 -42t39 -100q0 -59 -39 -100t-104 -41z" />
    <glyph glyph-name="oslash" unicode="&#xf8;" horiz-adv-x="1265" 
d="M920 993q130 -67 196 -193.5t66 -285.5q0 -113 -32.5 -209.5t-97.5 -173t-172.5 -120.5t-246.5 -44q-68 0 -115 8l-115 -288l-155 57l110 279q-136 67 -204 196.5t-68 294.5q0 112 32.5 208t97 172t171.5 119.5t246 43.5q64 0 129 -10l94 235l156 -57zM340 512
q0 -217 96 -291l250 633q-16 2 -53 2q-154 0 -223.5 -79.5t-69.5 -264.5zM633 168q154 0 223.5 79.5t69.5 264.5q0 203 -84 281l-248 -623q12 -2 39 -2z" />
    <glyph glyph-name="ugrave" unicode="&#xf9;" horiz-adv-x="1245" 
d="M881 1214l-31 -75l-502 90l58 170zM860 1024h254v-1024h-254v209q-105 -242 -362 -242q-383 0 -383 424v633h254v-600q0 -135 56 -191.5t163 -56.5q129 0 200.5 101t71.5 298v449z" />
    <glyph glyph-name="uacute" unicode="&#xfa;" horiz-adv-x="1245" 
d="M879 1229l-504 -90l-29 75l473 185zM860 1024h254v-1024h-254v209q-105 -242 -362 -242q-383 0 -383 424v633h254v-600q0 -135 56 -191.5t163 -56.5q129 0 200.5 101t71.5 298v449z" />
    <glyph glyph-name="ucircumflex" unicode="&#xfb;" horiz-adv-x="1245" 
d="M612 1266l-221 -154l-98 107l235 151h170l234 -151l-96 -107zM860 1024h254v-1024h-254v209q-105 -242 -362 -242q-383 0 -383 424v633h254v-600q0 -135 56 -191.5t163 -56.5q129 0 200.5 101t71.5 298v449z" />
    <glyph glyph-name="udieresis" unicode="&#xfc;" horiz-adv-x="1245" 
d="M524 1362v-195h-258v195h258zM956 1362v-195h-258v195h258zM860 1024h254v-1024h-254v209q-105 -242 -362 -242q-383 0 -383 424v633h254v-600q0 -135 56 -191.5t163 -56.5q129 0 200.5 101t71.5 298v449z" />
    <glyph glyph-name="yacute" unicode="&#xfd;" horiz-adv-x="1169" 
d="M852 1229l-504 -90l-29 75l474 185zM893 1024h244l-396 -1085q-27 -78 -49.5 -127t-56.5 -95.5t-75.5 -71.5t-101.5 -40t-141 -15h-217v203h351l81 217h-124l-369 1014h260l252 -686l47 -145l45 145z" />
    <glyph glyph-name="thorn" unicode="&#xfe;" horiz-adv-x="1310" 
d="M754 1057q97 0 176.5 -28t134 -77.5t91.5 -118.5t54 -149.5t17 -171.5q0 -114 -28 -211t-83.5 -172.5t-148 -118.5t-213.5 -43q-261 0 -373 197v-574h-254v1844h254v-572q111 195 373 195zM684 168q155 0 222 83t67 261t-67 261t-222 83q-153 0 -228 -84t-75 -260
t75 -260t228 -84z" />
    <glyph glyph-name="ydieresis" unicode="&#xff;" horiz-adv-x="1169" 
d="M498 1362v-195h-258v195h258zM930 1362v-195h-258v195h258zM893 1024h244l-396 -1085q-27 -78 -49.5 -127t-56.5 -95.5t-75.5 -71.5t-101.5 -40t-141 -15h-217v203h351l81 217h-124l-369 1014h260l252 -686l47 -145l45 145z" />
    <glyph glyph-name="Amacron" unicode="&#x100;" horiz-adv-x="1509" 
d="M1133 1706v-170h-746v170h746zM1184 0l-109 301h-637l-108 -301h-262l491 1362h397l492 -1362h-264zM512 506h487l-243 676z" />
    <glyph glyph-name="amacron" unicode="&#x101;" horiz-adv-x="1161" 
d="M225 1362h723v-166h-723v166zM440 -27q-156 0 -248 80.5t-92 218.5q0 130 74 207.5t252 106.5l248 43q73 12 104 36.5t31 73.5q0 66 -45.5 100.5t-157.5 34.5q-221 0 -233 -176h-250q3 165 129 263t348 98q218 0 330 -89t112 -245v-475q0 -100 13 -250h-226
q-12 111 -12 225q-37 -111 -131.5 -181.5t-245.5 -70.5zM514 156q138 0 216.5 92.5t78.5 243.5v55q-56 -43 -176 -70l-113 -26q-90 -22 -129 -58t-39 -100q0 -66 44.5 -101.5t117.5 -35.5z" />
    <glyph glyph-name="Abreve" unicode="&#x102;" horiz-adv-x="1509" 
d="M760 1497q-75 0 -131 19.5t-87 53t-46.5 69.5t-18.5 77h146q5 -47 40 -74.5t97 -27.5t97 27.5t38 74.5h147q-3 -41 -18.5 -77t-46.5 -69.5t-86.5 -53t-130.5 -19.5zM1184 0l-109 301h-637l-108 -301h-262l491 1362h397l492 -1362h-264zM512 506h487l-243 676z" />
    <glyph glyph-name="abreve" unicode="&#x103;" horiz-adv-x="1161" 
d="M299 1362h145q5 -47 40.5 -74.5t97.5 -27.5t97 27.5t38 74.5h147q-3 -41 -18.5 -77t-46.5 -69.5t-86.5 -53t-130.5 -19.5t-131 19.5t-87 53t-46.5 69.5t-18.5 77zM440 -27q-156 0 -248 80.5t-92 218.5q0 130 74 207.5t252 106.5l248 43q73 12 104 36.5t31 73.5
q0 66 -45.5 100.5t-157.5 34.5q-221 0 -233 -176h-250q3 165 129 263t348 98q218 0 330 -89t112 -245v-475q0 -100 13 -250h-226q-12 111 -12 225q-37 -111 -131.5 -181.5t-245.5 -70.5zM514 156q138 0 216.5 92.5t78.5 243.5v55q-56 -43 -176 -70l-113 -26
q-90 -22 -129 -58t-39 -100q0 -66 44.5 -101.5t117.5 -35.5z" />
    <glyph glyph-name="Aogonek" unicode="&#x104;" horiz-adv-x="1509" 
d="M1317 -195q47 0 110 17l3 -164q-52 -25 -130 -25q-125 0 -201.5 65t-76.5 175q0 138 123 231l-70 197h-637l-108 -301h-262l491 1362h397l492 -1362h-242q-14 -35 -14 -78q0 -58 36.5 -87.5t88.5 -29.5zM512 506h487l-243 676z" />
    <glyph glyph-name="aogonek" unicode="&#x105;" horiz-adv-x="1161" 
d="M1159 -178l2 -164q-52 -25 -129 -25q-125 0 -201.5 65t-76.5 175q0 103 69 182q-6 83 -6 170q-37 -111 -131.5 -181.5t-245.5 -70.5q-156 0 -248 80.5t-92 218.5q0 130 74 207.5t252 106.5l248 43q73 12 104 36.5t31 73.5q0 66 -45.5 100.5t-157.5 34.5q-221 0 -233 -176
h-250q3 165 129 263t348 98q218 0 330 -89t112 -245v-475q0 -100 13 -250h-117q-14 -35 -14 -78q0 -58 36.5 -87.5t88.5 -29.5q47 0 110 17zM809 492v55q-56 -43 -176 -70l-113 -26q-90 -22 -129 -58t-39 -100q0 -66 44.5 -101.5t117.5 -35.5q138 0 216.5 92.5t78.5 243.5z
" />
    <glyph glyph-name="Cacute" unicode="&#x106;" horiz-adv-x="1576" 
d="M1055 1567l-504 -90l-29 75l473 185zM803 -35q-146 0 -264 37t-198.5 101.5t-135 155.5t-79 196.5t-24.5 226.5q0 118 25.5 223t80.5 196.5t136 157t199.5 103t263.5 37.5q168 0 291.5 -37t203 -109.5t122 -173.5t53.5 -237h-267q-18 169 -114 255.5t-289 86.5
q-221 0 -326.5 -125.5t-105.5 -376.5q0 -252 102.5 -377t321.5 -125q203 0 303 92t112 269h271q-10 -142 -52.5 -247t-123 -179.5t-207 -112t-299.5 -37.5z" />
    <glyph glyph-name="cacute" unicode="&#x107;" horiz-adv-x="1224" 
d="M881 1229l-504 -90l-29 75l473 185zM86 512q0 113 33.5 210t98.5 172.5t170.5 119t240.5 43.5q243 0 374.5 -119.5t139.5 -312.5h-244q-11 106 -75 168.5t-189 62.5q-144 0 -219.5 -80t-75.5 -264q0 -187 73.5 -265.5t217.5 -78.5q128 0 195.5 66t80.5 174h244
q-3 -89 -37 -167t-96 -140t-161.5 -98t-223.5 -36q-136 0 -242.5 43.5t-172 119t-99 172.5t-33.5 210z" />
    <glyph glyph-name="Cdotaccent" unicode="&#x10a;" horiz-adv-x="1576" 
d="M639 1501v195h295v-195h-295zM803 -35q-146 0 -264 37t-198.5 101.5t-135 155.5t-79 196.5t-24.5 226.5q0 118 25.5 223t80.5 196.5t136 157t199.5 103t263.5 37.5q168 0 291.5 -37t203 -109.5t122 -173.5t53.5 -237h-267q-18 169 -114 255.5t-289 86.5
q-221 0 -326.5 -125.5t-105.5 -376.5q0 -252 102.5 -377t321.5 -125q203 0 303 92t112 269h271q-10 -142 -52.5 -247t-123 -179.5t-207 -112t-299.5 -37.5z" />
    <glyph glyph-name="cdotaccent" unicode="&#x10b;" horiz-adv-x="1224" 
d="M465 1167v195h295v-195h-295zM86 512q0 113 33.5 210t98.5 172.5t170.5 119t240.5 43.5q243 0 374.5 -119.5t139.5 -312.5h-244q-11 106 -75 168.5t-189 62.5q-144 0 -219.5 -80t-75.5 -264q0 -187 73.5 -265.5t217.5 -78.5q128 0 195.5 66t80.5 174h244q-3 -89 -37 -167
t-96 -140t-161.5 -98t-223.5 -36q-136 0 -242.5 43.5t-172 119t-99 172.5t-33.5 210z" />
    <glyph glyph-name="Ccaron" unicode="&#x10c;" horiz-adv-x="1576" 
d="M467 1642l98 107l221 -154l224 154l96 -107l-234 -151h-170zM803 -35q-146 0 -264 37t-198.5 101.5t-135 155.5t-79 196.5t-24.5 226.5q0 118 25.5 223t80.5 196.5t136 157t199.5 103t263.5 37.5q168 0 291.5 -37t203 -109.5t122 -173.5t53.5 -237h-267
q-18 169 -114 255.5t-289 86.5q-221 0 -326.5 -125.5t-105.5 -376.5q0 -252 102.5 -377t321.5 -125q203 0 303 92t112 269h271q-10 -142 -52.5 -247t-123 -179.5t-207 -112t-299.5 -37.5z" />
    <glyph glyph-name="ccaron" unicode="&#x10d;" horiz-adv-x="1224" 
d="M293 1294l98 107l221 -154l224 154l96 -107l-234 -151h-170zM86 512q0 113 33.5 210t98.5 172.5t170.5 119t240.5 43.5q243 0 374.5 -119.5t139.5 -312.5h-244q-11 106 -75 168.5t-189 62.5q-144 0 -219.5 -80t-75.5 -264q0 -187 73.5 -265.5t217.5 -78.5q128 0 195.5 66
t80.5 174h244q-3 -89 -37 -167t-96 -140t-161.5 -98t-223.5 -36q-136 0 -242.5 43.5t-172 119t-99 172.5t-33.5 210z" />
    <glyph glyph-name="Dcaron" unicode="&#x10e;" horiz-adv-x="1476" 
d="M825 1491h-170l-235 151l98 107l221 -154l224 154l96 -107zM748 1362q130 0 237.5 -36t182 -98.5t125.5 -148.5t74.5 -185t23.5 -210t-23.5 -211t-74.5 -187t-125.5 -150.5t-182 -99.5t-237.5 -36h-623v1362h623zM694 209q225 0 324.5 117t99.5 358t-99 355t-325 114
h-307v-944h307z" />
    <glyph glyph-name="dcaron" unicode="&#x10f;" horiz-adv-x="1607" 
d="M1339 1634h232l-23 -491h-184zM932 860v574h254v-1434h-254v164q-115 -197 -373 -197q-97 0 -176.5 28.5t-134.5 78t-92.5 118.5t-54.5 149t-17 171t17 171t54.5 149t92.5 118.5t134.5 78t176.5 28.5q258 0 373 -197zM627 168q153 0 229 84t76 260t-76 260t-229 84
q-154 0 -220.5 -83t-66.5 -261t66.5 -261t220.5 -83z" />
    <glyph glyph-name="Dcroat" unicode="&#x110;" horiz-adv-x="1638" 
d="M911 1362q130 0 237 -36t181.5 -98.5t125.5 -148.5t75 -185.5t24 -209.5q0 -111 -24 -211t-75 -187t-125.5 -150.5t-181.5 -99.5t-237 -36h-622v580h-230v192h230v590h622zM856 209q226 0 325 117t99 358t-99 355t-325 114h-307v-381h350v-192h-350v-371h307z" />
    <glyph glyph-name="dcroat" unicode="&#x111;" horiz-adv-x="1368" 
d="M1368 1315v-160h-182v-1155h-254v164q-115 -197 -373 -197q-97 0 -176.5 28.5t-134.5 78t-92.5 118.5t-54.5 149t-17 171t17 171t54.5 149t92.5 118.5t134.5 78t176.5 28.5q258 0 373 -197v295h-357v160h357v119h254v-119h182zM627 168q153 0 229 84t76 260t-76 260
t-229 84q-154 0 -220.5 -83t-66.5 -261t66.5 -261t220.5 -83z" />
    <glyph glyph-name="Emacron" unicode="&#x112;" horiz-adv-x="1292" 
d="M1012 1706v-170h-746v170h746zM387 209h793v-209h-1055v1362h1049v-209h-787v-358h725v-199h-725v-387z" />
    <glyph glyph-name="emacron" unicode="&#x113;" horiz-adv-x="1210" 
d="M971 1362v-166h-723v166h723zM627 147q211 0 262 162h239q-7 -50 -26 -95t-58.5 -91.5t-94.5 -80t-140.5 -54.5t-190.5 -21q-138 0 -243 43.5t-166.5 120t-92 173t-30.5 210.5t32.5 211t96 172t167 117.5t236.5 42.5q130 0 230 -42t161.5 -116t92.5 -168.5t31 -206.5
q0 -36 -7 -80h-794q13 -161 88.5 -229t206.5 -68zM623 879q-126 0 -197.5 -61t-89.5 -206h553q-15 267 -266 267z" />
    <glyph glyph-name="Edotaccent" unicode="&#x116;" horiz-adv-x="1292" 
d="M784 1696v-195h-295v195h295zM387 209h793v-209h-1055v1362h1049v-209h-787v-358h725v-199h-725v-387z" />
    <glyph glyph-name="edotaccent" unicode="&#x117;" horiz-adv-x="1210" 
d="M756 1362v-195h-295v195h295zM627 147q211 0 262 162h239q-7 -50 -26 -95t-58.5 -91.5t-94.5 -80t-140.5 -54.5t-190.5 -21q-138 0 -243 43.5t-166.5 120t-92 173t-30.5 210.5t32.5 211t96 172t167 117.5t236.5 42.5q130 0 230 -42t161.5 -116t92.5 -168.5t31 -206.5
q0 -36 -7 -80h-794q13 -161 88.5 -229t206.5 -68zM623 879q-126 0 -197.5 -61t-89.5 -206h553q-15 267 -266 267z" />
    <glyph glyph-name="Eogonek" unicode="&#x118;" horiz-adv-x="1292" 
d="M1180 0h-228q-14 -35 -14 -78q0 -58 36.5 -87.5t88.5 -29.5q48 0 111 17l2 -164q-52 -25 -129 -25q-125 0 -202 65t-77 175q0 63 31 127h-674v1362h1049v-209h-787v-358h725v-199h-725v-387h793v-209z" />
    <glyph glyph-name="eogonek" unicode="&#x119;" horiz-adv-x="1210" 
d="M1128 309q-12 -84 -62.5 -159.5t-147.5 -122.5q-29 -53 -29 -105q0 -58 36.5 -87.5t88.5 -29.5q47 0 110 17l2 -164q-52 -25 -129 -25q-125 0 -201.5 65t-76.5 175q0 55 18 102q-47 -8 -119 -8q-138 0 -243 43.5t-166.5 120t-92 173t-30.5 210.5t32.5 211t96 172
t167 117.5t236.5 42.5q130 0 230 -42t161.5 -116t92.5 -168.5t31 -206.5q0 -36 -7 -80h-794q13 -161 88.5 -229t206.5 -68q211 0 262 162h239zM623 879q-126 0 -197.5 -61t-89.5 -206h553q-15 267 -266 267z" />
    <glyph glyph-name="Ecaron" unicode="&#x11a;" horiz-adv-x="1292" 
d="M723 1491h-170l-236 151l99 107l221 -154l223 154l96 -107zM387 209h793v-209h-1055v1362h1049v-209h-787v-358h725v-199h-725v-387z" />
    <glyph glyph-name="ecaron" unicode="&#x11b;" horiz-adv-x="1210" 
d="M694 1143h-170l-235 151l98 107l221 -154l223 154l97 -107zM627 147q211 0 262 162h239q-7 -50 -26 -95t-58.5 -91.5t-94.5 -80t-140.5 -54.5t-190.5 -21q-138 0 -243 43.5t-166.5 120t-92 173t-30.5 210.5t32.5 211t96 172t167 117.5t236.5 42.5q130 0 230 -42
t161.5 -116t92.5 -168.5t31 -206.5q0 -36 -7 -80h-794q13 -161 88.5 -229t206.5 -68zM623 879q-126 0 -197.5 -61t-89.5 -206h553q-15 267 -266 267z" />
    <glyph glyph-name="Gbreve" unicode="&#x11e;" horiz-adv-x="1615" 
d="M518 1716h146q5 -47 40 -74.5t97 -27.5t97 27.5t38 74.5h147q-3 -41 -18.5 -77t-46.5 -69.5t-86.5 -53t-130.5 -19.5t-131 19.5t-87 53t-46.5 69.5t-18.5 77zM758 -35q-166 0 -293.5 55.5t-205.5 154t-117.5 226.5t-39.5 281t42.5 281t127.5 226.5t224 154t321 55.5
q317 0 479.5 -132t186.5 -374h-266q-19 146 -117 221.5t-287 75.5q-224 0 -331 -126t-107 -382q0 -254 103.5 -381t328.5 -127q375 0 422 350h-531v181h783v-705h-228v276q-48 -143 -172.5 -227t-322.5 -84z" />
    <glyph glyph-name="gbreve" unicode="&#x11f;" horiz-adv-x="1310" 
d="M649 1143q-75 0 -130.5 19.5t-86.5 53t-46.5 69.5t-18.5 77h145q5 -47 40 -74.5t97 -27.5t97 27.5t38 74.5h148q-3 -41 -18.5 -77t-46.5 -69.5t-87 -53t-131 -19.5zM930 1024h254v-1001q0 -229 -129.5 -342t-421.5 -113q-243 0 -376.5 100.5t-147.5 282.5h251
q19 -197 281 -197q153 0 221 58t68 196v191q-107 -170 -363 -170q-121 0 -214.5 38.5t-151 108.5t-86.5 162t-29 203q0 112 29 204t86.5 161.5t151 108t214.5 38.5q255 0 363 -179v150zM641 219q151 0 220 76.5t69 243.5q0 166 -69 241.5t-220 75.5q-160 0 -229.5 -72.5
t-69.5 -244.5q0 -173 69.5 -246.5t229.5 -73.5z" />
    <glyph glyph-name="Gdotaccent" unicode="&#x120;" horiz-adv-x="1615" 
d="M653 1501v195h295v-195h-295zM758 -35q-166 0 -293.5 55.5t-205.5 154t-117.5 226.5t-39.5 281t42.5 281t127.5 226.5t224 154t321 55.5q317 0 479.5 -132t186.5 -374h-266q-19 146 -117 221.5t-287 75.5q-224 0 -331 -126t-107 -382q0 -254 103.5 -381t328.5 -127
q375 0 422 350h-531v181h783v-705h-228v276q-48 -143 -172.5 -227t-322.5 -84z" />
    <glyph glyph-name="gdotaccent" unicode="&#x121;" horiz-adv-x="1310" 
d="M803 1362v-195h-295v195h295zM930 1024h254v-1001q0 -229 -129.5 -342t-421.5 -113q-243 0 -376.5 100.5t-147.5 282.5h251q19 -197 281 -197q153 0 221 58t68 196v191q-107 -170 -363 -170q-121 0 -214.5 38.5t-151 108.5t-86.5 162t-29 203q0 112 29 204t86.5 161.5
t151 108t214.5 38.5q255 0 363 -179v150zM641 219q151 0 220 76.5t69 243.5q0 166 -69 241.5t-220 75.5q-160 0 -229.5 -72.5t-69.5 -244.5q0 -173 69.5 -246.5t229.5 -73.5z" />
    <glyph glyph-name="uni0122" unicode="&#x122;" horiz-adv-x="1615" 
d="M758 -35q-166 0 -293.5 55.5t-205.5 154t-117.5 226.5t-39.5 281t42.5 281t127.5 226.5t224 154t321 55.5q317 0 479.5 -132t186.5 -374h-266q-19 146 -117 221.5t-287 75.5q-224 0 -331 -126t-107 -382q0 -254 103.5 -381t328.5 -127q375 0 422 350h-531v181h783v-705
h-228v276q-48 -143 -172.5 -227t-322.5 -84zM668 -336v230h266v-371q0 -91 -48 -136.5t-153 -45.5h-65v139h116v184h-116z" />
    <glyph glyph-name="uni0123" unicode="&#x123;" horiz-adv-x="1310" 
d="M786 1374v-229h-266v371q0 91 48 136.5t153 45.5h65v-139h-116v-185h116zM930 1024h254v-1001q0 -229 -129.5 -342t-421.5 -113q-243 0 -376.5 100.5t-147.5 282.5h251q19 -197 281 -197q153 0 221 58t68 196v191q-107 -170 -363 -170q-121 0 -214.5 38.5t-151 108.5
t-86.5 162t-29 203q0 112 29 204t86.5 161.5t151 108t214.5 38.5q255 0 363 -179v150zM641 219q151 0 220 76.5t69 243.5q0 166 -69 241.5t-220 75.5q-160 0 -229.5 -72.5t-69.5 -244.5q0 -173 69.5 -246.5t229.5 -73.5z" />
    <glyph glyph-name="Hbar" unicode="&#x126;" horiz-adv-x="1722" 
d="M1663 1192v-193h-217v-999h-260v594h-678v-594h-262v999h-187v193h187v170h262v-170h678v170h260v-170h217zM1186 801v198h-678v-198h678z" />
    <glyph glyph-name="hbar" unicode="&#x127;" horiz-adv-x="1298" 
d="M807 1057q198 0 287.5 -108t89.5 -316v-633h-254v602q0 134 -54.5 190t-156.5 56q-139 0 -210 -95.5t-71 -303.5v-449h-254v1155h-184v160h184v119h254v-119h357v-160h-357v-348q107 250 369 250z" />
    <glyph glyph-name="Imacron" unicode="&#x12a;" horiz-adv-x="1042" 
d="M893 1706v-170h-746v170h746zM918 1153h-267v-944h267v-209h-793v209h266v944h-266v209h793v-209z" />
    <glyph glyph-name="imacron" unicode="&#x12b;" horiz-adv-x="516" 
d="M-104 1362h722v-166h-722v166zM131 0v1024h254v-1024h-254z" />
    <glyph glyph-name="Iogonek" unicode="&#x12e;" horiz-adv-x="1042" 
d="M938 -178l2 -164q-52 -25 -129 -25q-125 0 -202 65t-77 175q0 63 31 127h-438v209h266v944h-266v209h793v-209h-267v-944h267v-209h-201q-15 -38 -15 -78q0 -58 36.5 -87.5t88.5 -29.5q48 0 111 17z" />
    <glyph glyph-name="iogonek" unicode="&#x12f;" horiz-adv-x="516" 
d="M406 1362v-195h-295v195h295zM473 -178l2 -164q-52 -25 -129 -25q-125 0 -201.5 65t-76.5 175q0 101 63 174v977h254v-1024h-133q-14 -35 -14 -78q0 -58 36 -87.5t88 -29.5q48 0 111 17z" />
    <glyph glyph-name="Idotaccent" unicode="&#x130;" horiz-adv-x="1042" 
d="M668 1696v-195h-295v195h295zM918 1153h-267v-944h267v-209h-793v209h266v944h-266v209h793v-209z" />
    <glyph glyph-name="dotlessi" unicode="&#x131;" horiz-adv-x="516" 
d="M131 0v1024h254v-1024h-254z" />
    <glyph glyph-name="uni0136" unicode="&#x136;" horiz-adv-x="1425" 
d="M797 786l553 -774v-12h-316l-413 598l-234 -252v-346h-262v1362h262v-682l602 682h340zM582 -336v230h266v-371q0 -91 -48 -136.5t-153 -45.5h-65v139h116v184h-116z" />
    <glyph glyph-name="uni0137" unicode="&#x137;" horiz-adv-x="1228" 
d="M723 592l477 -592h-309l-330 436l-176 -170v-266h-254v1434h254v-906q59 79 104 127l373 369h305v-6zM483 -336v230h267v-371q0 -91 -48 -136.5t-153 -45.5h-66v139h117v184h-117z" />
    <glyph glyph-name="Lacute" unicode="&#x139;" horiz-adv-x="1079" 
d="M465 1737l59 -170l-504 -90l-30 75zM387 209h666v-209h-928v1362h262v-1153z" />
    <glyph glyph-name="lacute" unicode="&#x13a;" horiz-adv-x="516" 
d="M524 1638l-504 -90l-30 76l475 184zM131 0v1434h254v-1434h-254z" />
    <glyph glyph-name="uni013B" unicode="&#x13b;" horiz-adv-x="1079" 
d="M387 209h666v-209h-928v1362h262v-1153zM432 -336v230h266v-371q0 -91 -47.5 -136.5t-152.5 -45.5h-66v139h117v184h-117z" />
    <glyph glyph-name="uni013C" unicode="&#x13c;" horiz-adv-x="516" 
d="M131 0v1434h254v-1434h-254zM125 -336v230h266v-371q0 -91 -48 -136.5t-153 -45.5h-65v139h117v184h-117z" />
    <glyph glyph-name="Lcaron" unicode="&#x13d;" horiz-adv-x="1079" 
d="M795 1143h-185l-24 491h231zM387 209h666v-209h-928v1362h262v-1153z" />
    <glyph glyph-name="lcaron" unicode="&#x13e;" horiz-adv-x="806" 
d="M541 1634h229l-22 -491h-185zM131 0v1434h254v-1434h-254z" />
    <glyph glyph-name="Lslash" unicode="&#x141;" horiz-adv-x="1234" 
d="M545 209h663v-209h-925v526l-224 -86v205l224 86v631h262v-528l373 143v-203l-373 -145v-420z" />
    <glyph glyph-name="lslash" unicode="&#x142;" horiz-adv-x="862" 
d="M805 956v-202l-246 -97v-657h-254v557l-246 -96v205l246 96v672h254v-574z" />
    <glyph glyph-name="Nacute" unicode="&#x143;" horiz-adv-x="1509" 
d="M1024 1567l-504 -90l-28 75l473 185zM1128 1362h256v-1362h-440l-475 973q-57 120 -88 215v-1188h-256v1362h440l479 -981q40 -85 84 -205v1186z" />
    <glyph glyph-name="nacute" unicode="&#x144;" horiz-adv-x="1245" 
d="M891 1229l-504 -90l-29 75l473 185zM754 1057q198 0 287 -107.5t89 -316.5v-633h-253v602q0 134 -54.5 190t-156.5 56q-139 0 -210 -95.5t-71 -303.5v-449h-254v1024h254v-217q107 250 369 250z" />
    <glyph glyph-name="uni0145" unicode="&#x145;" horiz-adv-x="1509" 
d="M1128 1362h256v-1362h-440l-475 973q-57 120 -88 215v-1188h-256v1362h440l479 -981q40 -85 84 -205v1186zM623 -336v230h266v-371q0 -91 -48 -136.5t-153 -45.5h-65v139h116v184h-116z" />
    <glyph glyph-name="uni0146" unicode="&#x146;" horiz-adv-x="1245" 
d="M754 1057q198 0 287 -107.5t89 -316.5v-633h-253v602q0 134 -54.5 190t-156.5 56q-139 0 -210 -95.5t-71 -303.5v-449h-254v1024h254v-217q107 250 369 250zM492 -336v230h266v-371q0 -91 -48 -136.5t-153 -45.5h-65v139h116v184h-116z" />
    <glyph glyph-name="Ncaron" unicode="&#x147;" horiz-adv-x="1509" 
d="M842 1491h-170l-236 151l99 107l221 -154l223 154l96 -107zM1128 1362h256v-1362h-440l-475 973q-57 120 -88 215v-1188h-256v1362h440l479 -981q40 -85 84 -205v1186z" />
    <glyph glyph-name="ncaron" unicode="&#x148;" horiz-adv-x="1245" 
d="M709 1143h-170l-236 151l98 107l222 -154l223 154l96 -107zM754 1057q198 0 287 -107.5t89 -316.5v-633h-253v602q0 134 -54.5 190t-156.5 56q-139 0 -210 -95.5t-71 -303.5v-449h-254v1024h254v-217q107 250 369 250z" />
    <glyph glyph-name="Eng" unicode="&#x14a;" horiz-adv-x="1509" 
d="M1128 1362h256v-1452q0 -177 -74 -256.5t-268 -79.5h-198v203h284v223h-184l-475 973q-57 120 -88 215v-1188h-256v1362h440l479 -981q40 -85 84 -205v1186z" />
    <glyph glyph-name="eng" unicode="&#x14b;" horiz-adv-x="1245" 
d="M748 1057q382 0 382 -424v-709q0 -87 -16 -147t-54.5 -103.5t-105 -63.5t-166.5 -20h-198v203h287v809q0 134 -56.5 190t-163.5 56q-134 0 -203 -95.5t-69 -303.5v-449h-254v1024h254v-209q105 242 363 242z" />
    <glyph glyph-name="Omacron" unicode="&#x14c;" horiz-adv-x="1613" 
d="M434 1706h746v-170h-746v170zM807 -35q-147 0 -266 37.5t-200 102.5t-135.5 156.5t-79 196.5t-24.5 224q0 118 24.5 222t79 195.5t135 157.5t200 104t266.5 38t266 -38t200 -104t135 -158t78.5 -196t24.5 -221q0 -150 -40 -276t-122 -226.5t-220.5 -157.5t-321.5 -57z
M375 682q0 -254 100.5 -378t331.5 -124t330.5 124t99.5 378t-99.5 378t-330.5 124t-331.5 -124t-100.5 -378z" />
    <glyph glyph-name="omacron" unicode="&#x14d;" horiz-adv-x="1265" 
d="M272 1362h723v-166h-723v166zM633 -33q-139 0 -246 43.5t-171.5 120t-97 173t-32.5 210.5q0 112 32.5 208t97 172t171.5 119.5t246 43.5q112 0 204 -29t155 -79t106.5 -119t63.5 -148.5t20 -167.5q0 -113 -32.5 -209.5t-97.5 -173t-172.5 -120.5t-246.5 -44zM340 512
q0 -185 69.5 -264.5t223.5 -79.5t223.5 79.5t69.5 264.5t-69.5 264.5t-223.5 79.5t-223.5 -79.5t-69.5 -264.5z" />
    <glyph glyph-name="Ohungarumlaut" unicode="&#x150;" horiz-adv-x="1613" 
d="M1235 1655l-313 -168l-54 57l246 244zM823 1651l-313 -168l-53 57l245 242zM807 -35q-147 0 -266 37.5t-200 102.5t-135.5 156.5t-79 196.5t-24.5 224q0 118 24.5 222t79 195.5t135 157.5t200 104t266.5 38t266 -38t200 -104t135 -158t78.5 -196t24.5 -221
q0 -150 -40 -276t-122 -226.5t-220.5 -157.5t-321.5 -57zM375 682q0 -254 100.5 -378t331.5 -124t330.5 124t99.5 378t-99.5 378t-330.5 124t-331.5 -124t-100.5 -378z" />
    <glyph glyph-name="ohungarumlaut" unicode="&#x151;" horiz-adv-x="1265" 
d="M1061 1317l-313 -168l-54 57l246 242zM649 1311l-313 -166l-53 55l245 244zM633 -33q-139 0 -246 43.5t-171.5 120t-97 173t-32.5 210.5q0 112 32.5 208t97 172t171.5 119.5t246 43.5q112 0 204 -29t155 -79t106.5 -119t63.5 -148.5t20 -167.5q0 -113 -32.5 -209.5
t-97.5 -173t-172.5 -120.5t-246.5 -44zM340 512q0 -185 69.5 -264.5t223.5 -79.5t223.5 79.5t69.5 264.5t-69.5 264.5t-223.5 79.5t-223.5 -79.5t-69.5 -264.5z" />
    <glyph glyph-name="OE" unicode="&#x152;" horiz-adv-x="2422" 
d="M1518 209h792v-209h-1055v184q-145 -219 -485 -219q-137 0 -248.5 37.5t-188.5 103t-130 156.5t-77 196t-24 224q0 117 24 221.5t77 196t130 157.5t189 104t248 38q341 0 485 -221v184h1049v-209h-786v-358h725v-199h-725v-387zM807 180q231 0 330.5 124t99.5 378
t-99.5 378t-330.5 124t-331.5 -124t-100.5 -378t100.5 -378t331.5 -124z" />
    <glyph glyph-name="oe" unicode="&#x153;" horiz-adv-x="2017" 
d="M1432 147q213 0 264 162h239q-7 -50 -26 -95t-58 -91.5t-93.5 -80t-138.5 -54.5t-187 -21q-276 0 -402 172q-126 -172 -401 -172q-138 0 -244 43.5t-170 120t-96.5 173.5t-32.5 210q0 112 32.5 208t96.5 172t170 119.5t244 43.5q274 0 401 -185q134 185 406 185
q126 0 223.5 -42t157 -116t90 -168.5t30.5 -206.5q0 -55 -4 -80h-794q13 -161 88.5 -229t204.5 -68zM1430 879q-128 0 -199 -61t-88 -206h553q-15 267 -266 267zM633 168q154 0 223.5 79.5t69.5 264.5t-69.5 264.5t-223.5 79.5t-223.5 -79.5t-69.5 -264.5t69.5 -264.5
t223.5 -79.5z" />
    <glyph glyph-name="Racute" unicode="&#x154;" horiz-adv-x="1361" 
d="M946 1567l-504 -90l-28 75l473 185zM1214 342v-111q0 -93 27 -231h-258q-27 79 -27 225v90q0 242 -256 242h-313v-557h-262v1362h686q215 0 328.5 -99.5t113.5 -271.5q0 -138 -75.5 -230t-198.5 -122q56 -16 95 -36t73 -53.5t50.5 -85t16.5 -122.5zM770 748
q114 0 162.5 53.5t48.5 159.5q0 196 -217 196h-377v-409h383z" />
    <glyph glyph-name="racute" unicode="&#x155;" horiz-adv-x="821" 
d="M678 1229l-504 -90l-29 75l473 185zM719 1040h49v-245h-76q-172 0 -239.5 -98t-67.5 -300v-397h-254v1024h248v-238q89 254 340 254z" />
    <glyph glyph-name="uni0156" unicode="&#x156;" horiz-adv-x="1361" 
d="M1214 342v-111q0 -93 27 -231h-258q-27 79 -27 225v90q0 242 -256 242h-313v-557h-262v1362h686q215 0 328.5 -99.5t113.5 -271.5q0 -138 -75.5 -230t-198.5 -122q56 -16 95 -36t73 -53.5t50.5 -85t16.5 -122.5zM770 748q114 0 162.5 53.5t48.5 159.5q0 196 -217 196
h-377v-409h383zM547 -336v230h266v-371q0 -91 -48 -136.5t-153 -45.5h-65v139h117v184h-117z" />
    <glyph glyph-name="uni0157" unicode="&#x157;" horiz-adv-x="821" 
d="M719 1040h49v-245h-76q-172 0 -239.5 -98t-67.5 -300v-397h-254v1024h248v-238q89 254 340 254zM125 -336v230h266v-371q0 -91 -48 -136.5t-153 -45.5h-65v139h117v184h-117z" />
    <glyph glyph-name="Rcaron" unicode="&#x158;" horiz-adv-x="1361" 
d="M764 1491h-170l-236 151l99 107l221 -154l223 154l96 -107zM1214 342v-111q0 -93 27 -231h-258q-27 79 -27 225v90q0 242 -256 242h-313v-557h-262v1362h686q215 0 328.5 -99.5t113.5 -271.5q0 -138 -75.5 -230t-198.5 -122q56 -16 95 -36t73 -53.5t50.5 -85t16.5 -122.5
zM770 748q114 0 162.5 53.5t48.5 159.5q0 196 -217 196h-377v-409h383z" />
    <glyph glyph-name="rcaron" unicode="&#x159;" horiz-adv-x="821" 
d="M498 1143h-170l-236 151l98 107l222 -154l223 154l96 -107zM719 1040h49v-245h-76q-172 0 -239.5 -98t-67.5 -300v-397h-254v1024h248v-238q89 254 340 254z" />
    <glyph glyph-name="Sacute" unicode="&#x15a;" horiz-adv-x="1359" 
d="M948 1567l-504 -90l-28 75l473 185zM90 453h252q6 -138 92.5 -213.5t261.5 -75.5q89 0 150 14.5t95 42.5t48.5 64.5t14.5 85.5q0 166 -205 196l-310 41q-179 23 -271.5 118t-92.5 259q0 187 140 300.5t411 113.5q144 0 253.5 -34t177 -95t103.5 -138t43 -171h-256
q-14 113 -94 177t-229 64q-142 0 -213.5 -55.5t-71.5 -149.5q0 -150 170 -172l309 -43q197 -25 297.5 -119t100.5 -264q0 -432 -572 -432q-130 0 -233.5 26.5t-171 71.5t-113 108t-65.5 132t-21 148z" />
    <glyph glyph-name="sacute" unicode="&#x15b;" horiz-adv-x="1079" 
d="M799 1229l-504 -90l-29 75l473 185zM61 338h234q6 -89 72 -144t192 -55q114 0 159.5 34.5t45.5 102.5q0 57 -35 90.5t-115 43.5l-241 34q-139 19 -212 93t-73 196q0 157 119 241.5t325 84.5q204 0 326.5 -87t134.5 -243h-241q-8 71 -64.5 114.5t-159.5 43.5
q-102 0 -151 -35t-49 -94q0 -99 133 -117l219 -29q180 -25 255 -103t75 -212q0 -330 -457 -330q-127 0 -223.5 29t-153.5 81t-85.5 117t-29.5 144z" />
    <glyph glyph-name="Scedilla" unicode="&#x15e;" horiz-adv-x="1359" 
d="M1266 399q0 -384 -457 -428l37 -151q20 -83 -18 -130.5t-115 -47.5h-205v163h158l-41 164q-115 7 -206 36.5t-151 75t-100.5 106.5t-58.5 126.5t-19 139.5h252q6 -138 92.5 -213.5t261.5 -75.5q89 0 150 14.5t95 42.5t48.5 64.5t14.5 85.5q0 166 -205 196l-310 41
q-179 23 -271.5 118t-92.5 259q0 187 140 300.5t411 113.5q144 0 253.5 -34t177 -95t103.5 -138t43 -171h-256q-14 113 -94 177t-229 64q-142 0 -213.5 -55.5t-71.5 -149.5q0 -150 170 -172l309 -43q197 -25 297.5 -119t100.5 -264z" />
    <glyph glyph-name="scedilla" unicode="&#x15f;" horiz-adv-x="1079" 
d="M1010 297q0 -289 -348 -324l36 -153q20 -83 -18 -130.5t-115 -47.5h-205v163h158l-41 164q-210 18 -312 118t-104 251h234q6 -89 72 -144t192 -55q114 0 159.5 34.5t45.5 102.5q0 57 -35 90.5t-115 43.5l-241 34q-139 19 -212 93t-73 196q0 157 119 241.5t325 84.5
q204 0 326.5 -87t134.5 -243h-241q-8 71 -64.5 114.5t-159.5 43.5q-102 0 -151 -35t-49 -94q0 -99 133 -117l219 -29q180 -25 255 -103t75 -212z" />
    <glyph glyph-name="Scaron" unicode="&#x160;" horiz-adv-x="1359" 
d="M360 1642l99 107l221 -154l223 154l96 -107l-233 -151h-170zM90 453h252q6 -138 92.5 -213.5t261.5 -75.5q89 0 150 14.5t95 42.5t48.5 64.5t14.5 85.5q0 166 -205 196l-310 41q-179 23 -271.5 118t-92.5 259q0 187 140 300.5t411 113.5q144 0 253.5 -34t177 -95
t103.5 -138t43 -171h-256q-14 113 -94 177t-229 64q-142 0 -213.5 -55.5t-71.5 -149.5q0 -150 170 -172l309 -43q197 -25 297.5 -119t100.5 -264q0 -432 -572 -432q-130 0 -233.5 26.5t-171 71.5t-113 108t-65.5 132t-21 148z" />
    <glyph glyph-name="scaron" unicode="&#x161;" horiz-adv-x="1079" 
d="M213 1294l98 107l221 -154l224 154l96 -107l-234 -151h-169zM61 338h234q6 -89 72 -144t192 -55q114 0 159.5 34.5t45.5 102.5q0 57 -35 90.5t-115 43.5l-241 34q-139 19 -212 93t-73 196q0 157 119 241.5t325 84.5q204 0 326.5 -87t134.5 -243h-241q-8 71 -64.5 114.5
t-159.5 43.5q-102 0 -151 -35t-49 -94q0 -99 133 -117l219 -29q180 -25 255 -103t75 -212q0 -330 -457 -330q-127 0 -223.5 29t-153.5 81t-85.5 117t-29.5 144z" />
    <glyph glyph-name="uni0162" unicode="&#x162;" horiz-adv-x="1320" 
d="M793 1153v-1153h-25l41 -174q20 -83 -18 -130.5t-115 -47.5h-205v164h158l-47 188h-52v1153h-460v209h1181v-209h-458z" />
    <glyph glyph-name="uni0163" unicode="&#x163;" horiz-adv-x="839" 
d="M784 831h-311v-628h287v-203h-160l43 -180q20 -83 -18 -130.5t-115 -47.5h-205v163h158l-53 211q-105 28 -148 105t-43 215v495h-190v125l211 80l104 226h129v-238h311v-193z" />
    <glyph glyph-name="Tcaron" unicode="&#x164;" horiz-adv-x="1320" 
d="M748 1491h-170l-236 151l98 107l222 -154l223 154l96 -107zM1251 1362v-209h-458v-1153h-263v1153h-460v209h1181z" />
    <glyph glyph-name="tcaron" unicode="&#x165;" horiz-adv-x="882" 
d="M596 1634h231l-22 -491h-187zM561 0q-194 0 -268 79.5t-74 256.5v495h-190v125l211 80l104 226h129v-238h311v-193h-311v-628h287v-203h-199z" />
    <glyph glyph-name="Tbar" unicode="&#x166;" horiz-adv-x="1320" 
d="M1251 1153h-458v-385h458v-209h-458v-559h-263v559h-460v209h460v385h-460v209h1181v-209z" />
    <glyph glyph-name="tbar" unicode="&#x167;" horiz-adv-x="839" 
d="M784 831h-311v-149h311v-172h-311v-307h287v-203h-199q-194 0 -268 79.5t-74 256.5v174h-190v172h190v149h-190v125l211 80l104 226h129v-238h311v-193z" />
    <glyph glyph-name="Umacron" unicode="&#x16a;" horiz-adv-x="1425" 
d="M340 1706h745v-170h-745v170zM123 504v858h262v-823q0 -108 20 -178.5t64 -109.5t101.5 -54t142.5 -15t142.5 15t101 54t63.5 109.5t20 178.5v823h263v-858q0 -262 -149 -399.5t-441 -137.5q-293 0 -441.5 137t-148.5 400z" />
    <glyph glyph-name="umacron" unicode="&#x16b;" horiz-adv-x="1245" 
d="M975 1362v-166h-723v166h723zM860 1024h254v-1024h-254v209q-105 -242 -362 -242q-383 0 -383 424v633h254v-600q0 -135 56 -191.5t163 -56.5q129 0 200.5 101t71.5 298v449z" />
    <glyph glyph-name="Uring" unicode="&#x16e;" horiz-adv-x="1425" 
d="M713 1444q-87 0 -138 54.5t-51 133.5q0 76 51 130.5t138 54.5t138.5 -54.5t51.5 -130.5q0 -79 -51.5 -133.5t-138.5 -54.5zM641 1632q0 -35 21.5 -55.5t50.5 -20.5q31 0 51 20t20 56q0 34 -20.5 54t-50.5 20q-29 0 -50.5 -20t-21.5 -54zM123 504v858h262v-823
q0 -108 20 -178.5t64 -109.5t101.5 -54t142.5 -15t142.5 15t101 54t63.5 109.5t20 178.5v823h263v-858q0 -262 -149 -399.5t-441 -137.5q-293 0 -441.5 137t-148.5 400z" />
    <glyph glyph-name="uring" unicode="&#x16f;" horiz-adv-x="1245" 
d="M612 1139q-70 0 -111.5 43.5t-41.5 107.5q0 63 41.5 106.5t111.5 43.5q71 0 113.5 -43.5t42.5 -106.5q0 -64 -42.5 -107.5t-113.5 -43.5zM612 1352q-24 0 -40.5 -17t-16.5 -45t16.5 -45.5t40.5 -17.5q26 0 43 17.5t17 45.5t-17 45t-43 17zM860 1024h254v-1024h-254v209
q-105 -242 -362 -242q-383 0 -383 424v633h254v-600q0 -135 56 -191.5t163 -56.5q129 0 200.5 101t71.5 298v449z" />
    <glyph glyph-name="Uhungarumlaut" unicode="&#x170;" horiz-adv-x="1425" 
d="M1141 1655l-314 -168l-53 57l246 244zM729 1651l-313 -168l-54 57l246 242zM123 504v858h262v-823q0 -108 20 -178.5t64 -109.5t101.5 -54t142.5 -15t142.5 15t101 54t63.5 109.5t20 178.5v823h263v-858q0 -262 -149 -399.5t-441 -137.5q-293 0 -441.5 137t-148.5 400z
" />
    <glyph glyph-name="uhungarumlaut" unicode="&#x171;" horiz-adv-x="1245" 
d="M1040 1317l-313 -168l-53 57l246 242zM629 1311l-314 -166l-53 55l246 244zM860 1024h254v-1024h-254v209q-105 -242 -362 -242q-383 0 -383 424v633h254v-600q0 -135 56 -191.5t163 -56.5q129 0 200.5 101t71.5 298v449z" />
    <glyph glyph-name="Uogonek" unicode="&#x172;" horiz-adv-x="1425" 
d="M1303 504q0 -304 -197 -436q-59 -68 -59 -146q0 -58 36 -87.5t88 -29.5q48 0 111 17l2 -164q-52 -25 -129 -25q-125 0 -201.5 65t-76.5 175q0 59 22 111q-93 -17 -186 -17q-293 0 -441.5 137t-148.5 400v858h262v-823q0 -108 20 -178.5t64 -109.5t101.5 -54t142.5 -15
t142.5 15t101 54t63.5 109.5t20 178.5v823h263v-858z" />
    <glyph glyph-name="uogonek" unicode="&#x173;" horiz-adv-x="1245" 
d="M1200 -178l2 -164q-52 -25 -129 -25q-125 0 -201.5 65t-76.5 175q0 100 65 178v158q-105 -242 -362 -242q-383 0 -383 424v633h254v-600q0 -135 56 -191.5t163 -56.5q129 0 200.5 101t71.5 298v449h254v-1024h-135q-14 -35 -14 -78q0 -58 36.5 -87.5t88.5 -29.5
q47 0 110 17z" />
    <glyph glyph-name="Wcircumflex" unicode="&#x174;" horiz-adv-x="2144" 
d="M1073 1647l-221 -152l-98 104l235 152h170l234 -152l-97 -104zM1796 1362h258l-274 -1362h-445l-262 1159l-264 -1159h-442l-277 1362h260l244 -1210l278 1210h402l276 -1206z" />
    <glyph glyph-name="wcircumflex" unicode="&#x175;" horiz-adv-x="1837" 
d="M920 1266l-222 -154l-98 107l236 151h170l233 -151l-96 -107zM1552 1024h242l-289 -1024h-356l-229 743l-232 -743h-358l-287 1024h258l225 -834l273 834h260l272 -838z" />
    <glyph glyph-name="Ycircumflex" unicode="&#x176;" horiz-adv-x="1390" 
d="M696 1647l-221 -152l-98 104l235 152h170l234 -152l-96 -104zM1051 1362h290l-516 -930v-432h-260v432l-516 930h295l248 -500q44 -91 102 -217q5 12 105 217z" />
    <glyph glyph-name="ycircumflex" unicode="&#x177;" horiz-adv-x="1169" 
d="M586 1266l-221 -154l-99 107l236 151h170l233 -151l-96 -107zM893 1024h244l-396 -1085q-27 -78 -49.5 -127t-56.5 -95.5t-75.5 -71.5t-101.5 -40t-141 -15h-217v203h351l81 217h-124l-369 1014h260l252 -686l47 -145l45 145z" />
    <glyph glyph-name="Ydieresis" unicode="&#x178;" horiz-adv-x="1390" 
d="M627 1696v-195h-258v195h258zM1022 1696v-195h-258v195h258zM1051 1362h290l-516 -930v-432h-260v432l-516 930h295l248 -500q44 -91 102 -217q5 12 105 217z" />
    <glyph glyph-name="Zacute" unicode="&#x179;" horiz-adv-x="1406" 
d="M971 1567l-504 -90l-29 75l473 185zM453 209h847v-209h-1177v209l844 944h-832v209h1159v-209z" />
    <glyph glyph-name="zacute" unicode="&#x17a;" horiz-adv-x="1114" 
d="M834 1229l-504 -90l-29 75l473 185zM395 188h633v-188h-936v188l631 648h-623v188h922v-188z" />
    <glyph glyph-name="Zdotaccent" unicode="&#x17b;" horiz-adv-x="1406" 
d="M852 1696v-195h-295v195h295zM453 209h847v-209h-1177v209l844 944h-832v209h1159v-209z" />
    <glyph glyph-name="zdotaccent" unicode="&#x17c;" horiz-adv-x="1114" 
d="M715 1362v-195h-295v195h295zM395 188h633v-188h-936v188l631 648h-623v188h922v-188z" />
    <glyph glyph-name="Zcaron" unicode="&#x17d;" horiz-adv-x="1406" 
d="M791 1491h-170l-236 151l98 107l222 -154l223 154l96 -107zM453 209h847v-209h-1177v209l844 944h-832v209h1159v-209z" />
    <glyph glyph-name="zcaron" unicode="&#x17e;" horiz-adv-x="1114" 
d="M653 1143h-170l-235 151l98 107l221 -154l224 154l96 -107zM395 188h633v-188h-936v188l631 648h-623v188h922v-188z" />
    <glyph glyph-name="florin" unicode="&#x192;" horiz-adv-x="1189" 
d="M1026 1231h-303v-479h268v-195h-268v-633q0 -173 -81 -253.5t-277 -80.5h-201v203h305v764h-268v195h268v348q0 173 80.5 253.5t277.5 80.5h199v-203z" />
    <glyph glyph-name="uni01CD" unicode="&#x1cd;" horiz-adv-x="1509" 
d="M844 1491h-170l-236 151l99 107l221 -154l223 154l96 -107zM1184 0l-109 301h-637l-108 -301h-262l491 1362h397l492 -1362h-264zM512 506h487l-243 676z" />
    <glyph glyph-name="uni01CE" unicode="&#x1ce;" horiz-adv-x="1161" 
d="M266 1294l99 107l221 -154l223 154l96 -107l-233 -151h-170zM440 -27q-156 0 -248 80.5t-92 218.5q0 130 74 207.5t252 106.5l248 43q73 12 104 36.5t31 73.5q0 66 -45.5 100.5t-157.5 34.5q-221 0 -233 -176h-250q3 165 129 263t348 98q218 0 330 -89t112 -245v-475
q0 -100 13 -250h-226q-12 111 -12 225q-37 -111 -131.5 -181.5t-245.5 -70.5zM514 156q138 0 216.5 92.5t78.5 243.5v55q-56 -43 -176 -70l-113 -26q-90 -22 -129 -58t-39 -100q0 -66 44.5 -101.5t117.5 -35.5z" />
    <glyph glyph-name="uni01CF" unicode="&#x1cf;" horiz-adv-x="1042" 
d="M606 1491h-170l-235 151l98 107l221 -154l223 154l97 -107zM918 1153h-267v-944h267v-209h-793v209h266v944h-266v209h793v-209z" />
    <glyph glyph-name="uni01D0" unicode="&#x1d0;" horiz-adv-x="516" 
d="M-61 1294l98 107l221 -154l223 154l97 -107l-234 -151h-170zM131 0v1024h254v-1024h-254z" />
    <glyph glyph-name="uni01D1" unicode="&#x1d1;" horiz-adv-x="1613" 
d="M487 1642l99 107l221 -154l223 154l96 -107l-233 -151h-170zM807 -35q-147 0 -266 37.5t-200 102.5t-135.5 156.5t-79 196.5t-24.5 224q0 118 24.5 222t79 195.5t135 157.5t200 104t266.5 38t266 -38t200 -104t135 -158t78.5 -196t24.5 -221q0 -150 -40 -276t-122 -226.5
t-220.5 -157.5t-321.5 -57zM375 682q0 -254 100.5 -378t331.5 -124t330.5 124t99.5 378t-99.5 378t-330.5 124t-331.5 -124t-100.5 -378z" />
    <glyph glyph-name="uni01D2" unicode="&#x1d2;" horiz-adv-x="1265" 
d="M313 1294l99 107l221 -154l223 154l96 -107l-233 -151h-170zM633 -33q-139 0 -246 43.5t-171.5 120t-97 173t-32.5 210.5q0 112 32.5 208t97 172t171.5 119.5t246 43.5q112 0 204 -29t155 -79t106.5 -119t63.5 -148.5t20 -167.5q0 -113 -32.5 -209.5t-97.5 -173
t-172.5 -120.5t-246.5 -44zM340 512q0 -185 69.5 -264.5t223.5 -79.5t223.5 79.5t69.5 264.5t-69.5 264.5t-223.5 79.5t-223.5 -79.5t-69.5 -264.5z" />
    <glyph glyph-name="uni01D3" unicode="&#x1d3;" horiz-adv-x="1425" 
d="M393 1642l99 107l221 -154l223 154l96 -107l-233 -151h-170zM123 504v858h262v-823q0 -108 20 -178.5t64 -109.5t101.5 -54t142.5 -15t142.5 15t101 54t63.5 109.5t20 178.5v823h263v-858q0 -262 -149 -399.5t-441 -137.5q-293 0 -441.5 137t-148.5 400z" />
    <glyph glyph-name="uni01D4" unicode="&#x1d4;" horiz-adv-x="1245" 
d="M698 1143h-170l-235 151l98 107l221 -154l224 154l96 -107zM860 1024h254v-1024h-254v209q-105 -242 -362 -242q-383 0 -383 424v633h254v-600q0 -135 56 -191.5t163 -56.5q129 0 200.5 101t71.5 298v449z" />
    <glyph glyph-name="uni01D5" unicode="&#x1d5;" horiz-adv-x="1425" 
d="M340 2040h745v-170h-745v170zM385 1501v195h258v-195h-258zM780 1501v195h258v-195h-258zM123 504v858h262v-823q0 -108 20 -178.5t64 -109.5t101.5 -54t142.5 -15t142.5 15t101 54t63.5 109.5t20 178.5v823h263v-858q0 -262 -149 -399.5t-441 -137.5q-293 0 -441.5 137
t-148.5 400z" />
    <glyph glyph-name="uni01D6" unicode="&#x1d6;" horiz-adv-x="1245" 
d="M975 1700v-166h-723v166h723zM524 1167h-258v195h258v-195zM956 1167h-258v195h258v-195zM860 1024h254v-1024h-254v209q-105 -242 -362 -242q-383 0 -383 424v633h254v-600q0 -135 56 -191.5t163 -56.5q129 0 200.5 101t71.5 298v449z" />
    <glyph glyph-name="uni01D7" unicode="&#x1d7;" horiz-adv-x="1425" 
d="M979 1901l-504 -91l-29 76l474 185zM385 1501v195h258v-195h-258zM780 1501v195h258v-195h-258zM123 504v858h262v-823q0 -108 20 -178.5t64 -109.5t101.5 -54t142.5 -15t142.5 15t101 54t63.5 109.5t20 178.5v823h263v-858q0 -262 -149 -399.5t-441 -137.5
q-293 0 -441.5 137t-148.5 400z" />
    <glyph glyph-name="uni01D8" unicode="&#x1d8;" horiz-adv-x="1245" 
d="M879 1567l-504 -90l-29 75l473 185zM524 1362v-195h-258v195h258zM698 1167v195h258v-195h-258zM860 1024h254v-1024h-254v209q-105 -242 -362 -242q-383 0 -383 424v633h254v-600q0 -135 56 -191.5t163 -56.5q129 0 200.5 101t71.5 298v449z" />
    <glyph glyph-name="uni01D9" unicode="&#x1d9;" horiz-adv-x="1425" 
d="M393 1976l99 107l221 -154l223 154l96 -107l-233 -151h-170zM385 1501v195h258v-195h-258zM780 1501v195h258v-195h-258zM123 504v858h262v-823q0 -108 20 -178.5t64 -109.5t101.5 -54t142.5 -15t142.5 15t101 54t63.5 109.5t20 178.5v823h263v-858q0 -262 -149 -399.5
t-441 -137.5q-293 0 -441.5 137t-148.5 400z" />
    <glyph glyph-name="uni01DA" unicode="&#x1da;" horiz-adv-x="1245" 
d="M698 1481h-170l-235 151l98 107l221 -154l224 154l96 -107zM524 1362v-195h-258v195h258zM698 1167v195h258v-195h-258zM860 1024h254v-1024h-254v209q-105 -242 -362 -242q-383 0 -383 424v633h254v-600q0 -135 56 -191.5t163 -56.5q129 0 200.5 101t71.5 298v449z" />
    <glyph glyph-name="uni01DB" unicode="&#x1db;" horiz-adv-x="1425" 
d="M446 1901l58 170l475 -185l-31 -76zM385 1501v195h258v-195h-258zM780 1501v195h258v-195h-258zM123 504v858h262v-823q0 -108 20 -178.5t64 -109.5t101.5 -54t142.5 -15t142.5 15t101 54t63.5 109.5t20 178.5v823h263v-858q0 -262 -149 -399.5t-441 -137.5
q-293 0 -441.5 137t-148.5 400z" />
    <glyph glyph-name="uni01DC" unicode="&#x1dc;" horiz-adv-x="1245" 
d="M881 1552l-31 -75l-502 90l58 170zM524 1362v-195h-258v195h258zM698 1167v195h258v-195h-258zM860 1024h254v-1024h-254v209q-105 -242 -362 -242q-383 0 -383 424v633h254v-600q0 -135 56 -191.5t163 -56.5q129 0 200.5 101t71.5 298v449z" />
    <glyph glyph-name="uni0218" unicode="&#x218;" horiz-adv-x="1359" 
d="M90 453h252q6 -138 92.5 -213.5t261.5 -75.5q89 0 150 14.5t95 42.5t48.5 64.5t14.5 85.5q0 166 -205 196l-310 41q-179 23 -271.5 118t-92.5 259q0 187 140 300.5t411 113.5q144 0 253.5 -34t177 -95t103.5 -138t43 -171h-256q-14 113 -94 177t-229 64
q-142 0 -213.5 -55.5t-71.5 -149.5q0 -150 170 -172l309 -43q197 -25 297.5 -119t100.5 -264q0 -432 -572 -432q-130 0 -233.5 26.5t-171 71.5t-113 108t-65.5 132t-21 148zM547 -336v230h266v-371q0 -91 -48 -136.5t-153 -45.5h-65v139h117v184h-117z" />
    <glyph glyph-name="uni0219" unicode="&#x219;" horiz-adv-x="1079" 
d="M61 338h234q6 -89 72 -144t192 -55q114 0 159.5 34.5t45.5 102.5q0 57 -35 90.5t-115 43.5l-241 34q-139 19 -212 93t-73 196q0 157 119 241.5t325 84.5q204 0 326.5 -87t134.5 -243h-241q-8 71 -64.5 114.5t-159.5 43.5q-102 0 -151 -35t-49 -94q0 -99 133 -117l219 -29
q180 -25 255 -103t75 -212q0 -330 -457 -330q-127 0 -223.5 29t-153.5 81t-85.5 117t-29.5 144zM399 -336v230h267v-371q0 -91 -48 -136.5t-153 -45.5h-66v139h117v184h-117z" />
    <glyph glyph-name="uni021A" unicode="&#x21a;" horiz-adv-x="1320" 
d="M1251 1362v-209h-458v-1153h-263v1153h-460v209h1181zM510 -330v230h266v-371q0 -91 -48 -136.5t-153 -45.5h-65v139h117v184h-117z" />
    <glyph glyph-name="uni021B" unicode="&#x21b;" horiz-adv-x="839" 
d="M561 0q-194 0 -268 79.5t-74 256.5v495h-190v125l211 80l104 226h129v-238h311v-193h-311v-628h287v-203h-199zM344 -336v230h266v-371q0 -91 -47.5 -136.5t-152.5 -45.5h-66v139h117v184h-117z" />
    <glyph glyph-name="uni0237" unicode="&#x237;" horiz-adv-x="520" 
d="M-164 -410v203h305v1231h254v-1100q0 -173 -81 -253.5t-277 -80.5h-201z" />
    <glyph glyph-name="circumflex" unicode="&#x2c6;" horiz-adv-x="1228" 
d="M72 1219l235 151h170l234 -151l-97 -107l-223 154l-221 -154z" />
    <glyph glyph-name="caron" unicode="&#x2c7;" horiz-adv-x="1228" 
d="M174 1294l98 107l222 -154l223 154l96 -107l-233 -151h-170z" />
    <glyph glyph-name="breve" unicode="&#x2d8;" horiz-adv-x="1228" 
d="M178 1362h146q5 -47 40 -74.5t97 -27.5t97 27.5t38 74.5h147q-3 -41 -18.5 -77t-46.5 -69.5t-86.5 -53t-130.5 -19.5t-131 19.5t-87 53t-46.5 69.5t-18.5 77z" />
    <glyph glyph-name="dotaccent" unicode="&#x2d9;" horiz-adv-x="1228" 
d="M115 1167v195h295v-195h-295z" />
    <glyph glyph-name="ring" unicode="&#x2da;" horiz-adv-x="657" 
d="M328 1139q-70 0 -112 43.5t-42 107.5q0 62 42 106t112 44q71 0 113 -43.5t42 -106.5q0 -64 -42 -107.5t-113 -43.5zM270 1290q0 -28 17 -45.5t41 -17.5q25 0 42 17t17 46q0 28 -16.5 45t-42.5 17q-24 0 -41 -17t-17 -45z" />
    <glyph glyph-name="ogonek" unicode="&#x2db;" horiz-adv-x="1228" 
d="M408 -367q-125 0 -202 65t-77 175q0 184 215 287l49 -60q-94 -82 -94 -178q0 -58 36.5 -87.5t88.5 -29.5q48 0 111 17l2 -164q-52 -25 -129 -25z" />
    <glyph glyph-name="tilde" unicode="&#x2dc;" horiz-adv-x="1228" 
d="M684 1155q-48 0 -109.5 23t-113 46t-74.5 23q-45 0 -45 -49v-39h-168v60q0 80 49.5 116.5t128.5 36.5q57 0 117 -23t107.5 -46t74.5 -23q43 0 43 49v39h168v-57q0 -80 -50 -118t-128 -38z" />
    <glyph glyph-name="hungarumlaut" unicode="&#x2dd;" horiz-adv-x="1228" 
d="M926 1317l-314 -168l-53 57l246 242zM514 1311l-313 -166l-54 55l246 244z" />
    <glyph glyph-name="gravecomb" unicode="&#x300;" 
d="M-592 1229l57 170l476 -185l-31 -75z" />
    <glyph glyph-name="acutecomb" unicode="&#x301;" 
d="M-63 1229l-504 -90l-29 75l473 185z" />
    <glyph glyph-name="uni0302" unicode="&#x302;" 
d="M-711 1219l236 151h170l233 -151l-96 -107l-223 154l-221 -154z" />
    <glyph glyph-name="tildecomb" unicode="&#x303;" 
d="M-340 1155q-48 0 -109.5 23t-113 46t-74.5 23q-45 0 -45 -49v-39h-168v60q0 80 49.5 116.5t128.5 36.5q57 0 117 -23t107.5 -46t74.5 -23q43 0 43 49v39h168v-57q0 -80 -50 -118t-128 -38z" />
    <glyph glyph-name="uni0304" unicode="&#x304;" 
d="M-918 1362h723v-166h-723v166z" />
    <glyph glyph-name="uni0306" unicode="&#x306;" 
d="M-754 1362h146q5 -47 40 -74.5t97 -27.5t97 27.5t38 74.5h148q-3 -41 -18.5 -77t-46.5 -69.5t-87 -53t-131 -19.5t-131 19.5t-87 53t-46.5 69.5t-18.5 77z" />
    <glyph glyph-name="uni0307" unicode="&#x307;" 
d="M-410 1167v195h295v-195h-295z" />
    <glyph glyph-name="uni0308" unicode="&#x308;" 
d="M-795 1167v195h258v-195h-258zM-362 1167v195h258v-195h-258z" />
    <glyph glyph-name="uni030A" unicode="&#x30a;" 
d="M-330 1139q-70 0 -111.5 43.5t-41.5 107.5q0 63 41.5 106.5t111.5 43.5q71 0 113.5 -43.5t42.5 -106.5q0 -64 -42.5 -107.5t-113.5 -43.5zM-387 1290q0 -28 16.5 -45.5t40.5 -17.5q26 0 43 17.5t17 45.5t-17 45t-43 17q-24 0 -40.5 -17t-16.5 -45z" />
    <glyph glyph-name="uni030B" unicode="&#x30b;" 
d="M-147 1317l-314 -168l-53 57l246 242zM-559 1311l-313 -166l-54 55l246 244z" />
    <glyph glyph-name="uni030C" unicode="&#x30c;" 
d="M-813 1294l98 107l221 -154l224 154l96 -107l-234 -151h-170z" />
    <glyph glyph-name="uni0312" unicode="&#x312;" 
d="M-174 1374v-229h-266v371q0 91 47.5 136.5t152.5 45.5h66v-139h-117v-185h117z" />
    <glyph glyph-name="uni0326" unicode="&#x326;" 
d="M-332 -336v230h266v-371q0 -91 -47.5 -136.5t-152.5 -45.5h-66v139h117v184h-117z" />
    <glyph glyph-name="uni0327" unicode="&#x327;" 
d="M-489 -358v163h157l-67 271h186l61 -256q20 -83 -18 -130.5t-115 -47.5h-204z" />
    <glyph glyph-name="uni0328" unicode="&#x328;" 
d="M-283 -367q-125 0 -201.5 65t-76.5 175q0 184 215 287l49 -60q-94 -82 -94 -178q0 -58 36.5 -87.5t88.5 -29.5q47 0 110 17l2 -164q-52 -25 -129 -25z" />
    <glyph glyph-name="uni0394" unicode="&#x394;" horiz-adv-x="1478" 
d="M918 1362l458 -1153v-209h-1274v209l459 1153h357zM371 205h735l-369 938z" />
    <glyph glyph-name="uni03A9" unicode="&#x3a9;" horiz-adv-x="1658" 
d="M90 0v201h361q-158 70 -242 206t-84 328q0 105 23.5 200t77.5 180.5t134 148t200.5 99t268.5 36.5t268.5 -36.5t200.5 -99t134 -148t78 -180.5t24 -200q0 -192 -83 -328.5t-241 -205.5h359v-201h-1479zM829 231q234 0 333.5 120.5t99.5 365.5q0 246 -99.5 365.5
t-333.5 119.5t-333 -119t-99 -366q0 -246 99 -366t333 -120z" />
    <glyph glyph-name="pi" unicode="&#x3c0;" horiz-adv-x="1513" 
d="M1417 831h-264v-628h240v-203h-152q-194 0 -268 79.5t-74 256.5v495h-270v-831h-254v831h-281v193h1323v-193z" />
    <glyph glyph-name="Wgrave" unicode="&#x1e80;" horiz-adv-x="2144" 
d="M1339 1552l-30 -75l-502 90l57 170zM1796 1362h258l-274 -1362h-445l-262 1159l-264 -1159h-442l-277 1362h260l244 -1210l278 1210h402l276 -1206z" />
    <glyph glyph-name="wgrave" unicode="&#x1e81;" horiz-adv-x="1837" 
d="M1188 1214l-31 -75l-502 90l58 170zM1552 1024h242l-289 -1024h-356l-229 743l-232 -743h-358l-287 1024h258l225 -834l273 834h260l272 -838z" />
    <glyph glyph-name="Wacute" unicode="&#x1e82;" horiz-adv-x="2144" 
d="M1339 1567l-503 -90l-29 75l473 185zM1796 1362h258l-274 -1362h-445l-262 1159l-264 -1159h-442l-277 1362h260l244 -1210l278 1210h402l276 -1206z" />
    <glyph glyph-name="wacute" unicode="&#x1e83;" horiz-adv-x="1837" 
d="M1186 1229l-504 -90l-29 75l473 185zM1552 1024h242l-289 -1024h-356l-229 743l-232 -743h-358l-287 1024h258l225 -834l273 834h260l272 -838z" />
    <glyph glyph-name="Wdieresis" unicode="&#x1e84;" horiz-adv-x="2144" 
d="M1004 1696v-195h-259v195h259zM1399 1696v-195h-258v195h258zM1796 1362h258l-274 -1362h-445l-262 1159l-264 -1159h-442l-277 1362h260l244 -1210l278 1210h402l276 -1206z" />
    <glyph glyph-name="wdieresis" unicode="&#x1e85;" horiz-adv-x="1837" 
d="M831 1362v-195h-258v195h258zM1264 1362v-195h-258v195h258zM1552 1024h242l-289 -1024h-356l-229 743l-232 -743h-358l-287 1024h258l225 -834l273 834h260l272 -838z" />
    <glyph glyph-name="Ygrave" unicode="&#x1ef2;" horiz-adv-x="1390" 
d="M963 1552l-31 -75l-502 90l57 170zM1051 1362h290l-516 -930v-432h-260v432l-516 930h295l248 -500q44 -91 102 -217q5 12 105 217z" />
    <glyph glyph-name="ygrave" unicode="&#x1ef3;" horiz-adv-x="1169" 
d="M854 1214l-31 -75l-501 90l57 170zM893 1024h244l-396 -1085q-27 -78 -49.5 -127t-56.5 -95.5t-75.5 -71.5t-101.5 -40t-141 -15h-217v203h351l81 217h-124l-369 1014h260l252 -686l47 -145l45 145z" />
    <glyph glyph-name="endash" unicode="&#x2013;" horiz-adv-x="1165" 
d="M57 610h1051v-180h-1051v180z" />
    <glyph glyph-name="emdash" unicode="&#x2014;" horiz-adv-x="1585" 
d="M57 610h1471v-180h-1471v180z" />
    <glyph glyph-name="quoteleft" unicode="&#x2018;" horiz-adv-x="337" 
d="M303 1038v-227h-266v369q0 92 47 137t152 45h67v-139h-119v-185h119z" />
    <glyph glyph-name="quoteright" unicode="&#x2019;" horiz-adv-x="337" 
d="M37 1135v227h266v-369q0 -91 -48 -136.5t-153 -45.5h-65v139h117v185h-117z" />
    <glyph glyph-name="quotesinglbase" unicode="&#x201a;" horiz-adv-x="337" 
d="M37 6v227h266v-368q0 -93 -48 -138.5t-153 -45.5h-65v141h117v184h-117z" />
    <glyph glyph-name="quotedblleft" unicode="&#x201c;" horiz-adv-x="700" 
d="M303 1038v-227h-266v369q0 92 47 137t152 45h67v-139h-119v-185h119zM664 1038v-227h-267v369q0 91 48 136.5t153 45.5h66v-139h-117v-185h117z" />
    <glyph glyph-name="quotedblright" unicode="&#x201d;" horiz-adv-x="700" 
d="M37 1135v227h266v-369q0 -91 -48 -136.5t-153 -45.5h-65v139h117v185h-117zM397 1135v227h267v-369q0 -92 -47 -137t-152 -45h-68v139h119v185h-119z" />
    <glyph glyph-name="quotedblbase" unicode="&#x201e;" horiz-adv-x="337" 
d="M37 6v227h266v-368q0 -93 -48 -138.5t-153 -45.5h-65v141h117v184h-117z" />
    <glyph glyph-name="dagger" unicode="&#x2020;" horiz-adv-x="1214" 
d="M1040 1223v-213h-311v-645h-240v645h-315v213h315v323h240v-323h311z" />
    <glyph glyph-name="daggerdbl" unicode="&#x2021;" horiz-adv-x="1214" 
d="M1040 1059h-311v-238h311v-213h-311v-274h-240v274h-315v213h315v238h-315v213h315v274h240v-274h311v-213z" />
    <glyph glyph-name="bullet" unicode="&#x2022;" horiz-adv-x="788" 
d="M393 309q-89 0 -144.5 56t-55.5 147t55.5 147t144.5 56q91 0 147 -56t56 -147t-56 -147t-147 -56z" />
    <glyph glyph-name="ellipsis" unicode="&#x2026;" horiz-adv-x="1206" 
d="M37 0v233h272v-233h-272zM467 0v233h272v-233h-272zM897 0v233h272v-233h-272z" />
    <glyph glyph-name="perthousand" unicode="&#x2030;" horiz-adv-x="2469" 
d="M98 0v25l1207 1175h-533v-407h-598v569h1303q116 0 116 -94q0 -58 -71 -127l-1166 -1141h-258zM348 956h254v244h-254v-244zM1008 0v567h598v-567h-598zM1769 0v567h598v-567h-598zM1180 164h254v244h-254v-244zM1942 164h253v244h-253v-244z" />
    <glyph glyph-name="guilsinglleft" unicode="&#x2039;" horiz-adv-x="903" 
d="M111 500v26l409 498h281l-432 -512l432 -512h-281z" />
    <glyph glyph-name="guilsinglright" unicode="&#x203a;" horiz-adv-x="903" 
d="M793 500l-410 -500h-281l435 512l-435 512h281l410 -498v-26z" />
    <glyph glyph-name="Euro" unicode="&#x20ac;" horiz-adv-x="1859" 
d="M1133 883v-160h-969v160h170q24 113 77 205t135.5 162.5t203 109.5t268.5 39q168 0 291.5 -36.5t203 -109.5t122.5 -174t55 -237h-269q-18 169 -113 255.5t-290 86.5q-338 0 -410 -301h525zM1425 541h271q-10 -142 -52.5 -247t-123 -179.5t-207 -112t-299.5 -37.5
q-284 0 -451.5 130t-222.5 354h-176v159h969v-159h-519q38 -136 135.5 -202.5t260.5 -66.5q203 0 303 92t112 269z" />
    <glyph glyph-name="trademark" unicode="&#x2122;" horiz-adv-x="2895" 
d="M2769 1362v-1362h-260v1176l-387 -1176h-322l-387 1176v-1176h-262v1153h-358v-1153h-263v1153h-460v209h1534l360 -1110l363 1110h442z" />
    <glyph glyph-name="arrowleft" unicode="&#x2190;" horiz-adv-x="1560" 
d="M1458 690v-182h-1003l415 -416l-131 -131l-637 639l637 637l131 -131l-417 -416h1005z" />
    <glyph glyph-name="arrowup" unicode="&#x2191;" horiz-adv-x="1480" 
d="M1378 719l-131 -131l-409 411v-999h-195v997l-410 -409l-131 131l639 637z" />
    <glyph glyph-name="arrowright" unicode="&#x2192;" horiz-adv-x="1560" 
d="M821 1237l637 -637l-637 -639l-131 131l416 416h-1004v182h1006l-418 416z" />
    <glyph glyph-name="arrowdown" unicode="&#x2193;" horiz-adv-x="1480" 
d="M1247 715l131 -131l-637 -639l-639 639l131 131l410 -410v998h195v-1000z" />
    <glyph glyph-name="uni2196" unicode="&#x2196;" horiz-adv-x="1232" 
d="M1130 135l-137 -139l-706 706v-579h-185v901h902v-184h-580z" />
    <glyph glyph-name="uni2197" unicode="&#x2197;" horiz-adv-x="1232" 
d="M229 1024h901v-901h-184v579l-704 -706l-140 139l707 705h-580v184z" />
    <glyph glyph-name="uni2198" unicode="&#x2198;" horiz-adv-x="1232" 
d="M946 901h184v-901h-901v184h580l-707 707l140 137l704 -706v579z" />
    <glyph glyph-name="uni2199" unicode="&#x2199;" horiz-adv-x="1232" 
d="M1130 891l-706 -707h580v-184h-902v901h185v-579l706 706z" />
    <glyph glyph-name="partialdiff" unicode="&#x2202;" horiz-adv-x="1263" 
d="M84 512q0 114 28 209.5t84.5 170t149 116t213.5 41.5q260 0 373 -199q0 153 -122.5 297.5t-334.5 218.5l103 172q317 -107 459.5 -328.5t142.5 -578.5q0 -338 -135 -501t-412 -163q-142 0 -250 43t-172 119t-95.5 172t-31.5 211zM340 512q0 -178 66.5 -261t220.5 -83
q153 0 229 84t76 260t-76 260t-229 84q-154 0 -220.5 -83t-66.5 -261z" />
    <glyph glyph-name="product" unicode="&#x220f;" horiz-adv-x="1703" 
d="M1548 1546v-213h-268v-1743h-240v1743h-344v-1743h-239v1743h-271v213h1362z" />
    <glyph glyph-name="summation" unicode="&#x2211;" horiz-adv-x="1357" 
d="M1194 1546v-213h-754l559 -764l-559 -766h754v-213h-1030v213l557 766l-557 764v213h1030z" />
    <glyph glyph-name="minus" unicode="&#x2212;" horiz-adv-x="1187" 
d="M174 610h840v-180h-840v180z" />
    <glyph glyph-name="radical" unicode="&#x221a;" horiz-adv-x="1980" 
d="M1858 1526v-213h-375l-578 -1723h-358l-383 910h229l328 -776l604 1802h533z" />
    <glyph glyph-name="infinity" unicode="&#x221e;" horiz-adv-x="1787" 
d="M518 197q-161 0 -257.5 102.5t-96.5 249.5q0 143 96.5 242.5t257.5 99.5q163 0 259.5 -99.5t96.5 -242.5q0 -147 -96.5 -249.5t-259.5 -102.5zM1268 197q-160 0 -256.5 102.5t-96.5 249.5q0 142 96.5 242t256.5 100q163 0 259.5 -99.5t96.5 -242.5q0 -147 -96.5 -249.5
t-259.5 -102.5zM340 547q0 -82 52 -133.5t126 -51.5q75 0 126.5 51t51.5 134t-50.5 130.5t-127.5 47.5q-76 0 -127 -47.5t-51 -130.5zM1092 547q0 -82 51.5 -133.5t124.5 -51.5q76 0 128 51t52 134t-51.5 130.5t-128.5 47.5q-74 0 -125 -47.5t-51 -130.5z" />
    <glyph glyph-name="integral" unicode="&#x222b;" horiz-adv-x="1419" 
d="M164 -410v217h311l209 1405q11 73 25 121t39 92t62.5 68.5t94.5 38.5t137 14h213v-217h-313l-209 -1405q-12 -73 -25 -121t-38 -92t-62.5 -68.5t-95 -38.5t-137.5 -14h-211z" />
    <glyph glyph-name="approxequal" unicode="&#x2248;" horiz-adv-x="1067" 
d="M721 614q-61 0 -118.5 24.5t-93 54.5t-72 54.5t-60.5 24.5q-45 0 -45 -55v-94h-158v151q0 80 47.5 119t124.5 39q52 0 98.5 -16.5t80 -40t62 -47t55 -40t48.5 -16.5q45 0 45 55v95h158v-148q0 -78 -52 -119t-120 -41zM721 141q-61 0 -118.5 24.5t-93 54.5t-72 54.5
t-60.5 24.5q-45 0 -45 -55v-94h-158v151q0 80 47.5 119t124.5 39q52 0 98.5 -16.5t80 -40t62 -47t55 -40t48.5 -16.5q45 0 45 55v95h158v-148q0 -78 -52 -119t-120 -41z" />
    <glyph glyph-name="notequal" unicode="&#x2260;" horiz-adv-x="1054" 
d="M877 606h-232l-63 -178h295v-180h-363l-72 -199h-170l72 199h-170v180h238l63 178h-301v180h369l69 193h170l-69 -193h164v-180z" />
    <glyph glyph-name="lessequal" unicode="&#x2264;" horiz-adv-x="1212" 
d="M1036 969v-166l-739 -123l739 -123v-166l-862 148v282zM174 113v170h862v-170h-862z" />
    <glyph glyph-name="greaterequal" unicode="&#x2265;" horiz-adv-x="1210" 
d="M174 969l862 -148v-282l-862 -148v166l739 123l-739 123v166zM174 113v170h862v-170h-862z" />
    <glyph glyph-name="filledbox" unicode="&#x25a0;" horiz-adv-x="1568" 
d="M102 1362h1364v-1362h-1364v1362z" />
    <glyph glyph-name="triagup" unicode="&#x25b2;" horiz-adv-x="1728" 
d="M864 1362l762 -1362h-1524z" />
    <glyph glyph-name="lozenge" unicode="&#x25ca;" horiz-adv-x="1357" 
d="M872 1362l322 -680l-322 -682h-387l-321 682l321 680h387zM680 111l268 571l-268 569l-270 -569z" />
    <glyph glyph-name="uni25CF" unicode="&#x25cf;" horiz-adv-x="1640" 
d="M823 -37q-197 0 -363 96t-262 262t-96 363q0 146 56.5 278t153 228t230 152.5t281.5 56.5q146 0 278 -56.5t228 -152.5t152.5 -228t56.5 -278q0 -148 -56.5 -281.5t-152.5 -230t-228 -153t-278 -56.5z" />
    <glyph glyph-name="G.ss03" horiz-adv-x="1615" 
d="M758 -35q-166 0 -293.5 55.5t-205.5 154t-117.5 226.5t-39.5 281t42.5 281t127.5 226.5t224 154t321 55.5q317 0 479.5 -132t186.5 -374h-266q-19 146 -117 221.5t-287 75.5q-224 0 -331 -126t-107 -382q0 -254 103.5 -381t328.5 -127q375 0 422 350h-531v181h559
q108 0 166 -58t58 -166v-481h-228v276q-48 -143 -172.5 -227t-322.5 -84z" />
    <glyph glyph-name="Gbreve.ss03" horiz-adv-x="1615" 
d="M518 1716h146q5 -47 40 -74.5t97 -27.5t97 27.5t38 74.5h147q-3 -41 -18.5 -77t-46.5 -69.5t-86.5 -53t-130.5 -19.5t-131 19.5t-87 53t-46.5 69.5t-18.5 77zM758 -35q-166 0 -293.5 55.5t-205.5 154t-117.5 226.5t-39.5 281t42.5 281t127.5 226.5t224 154t321 55.5
q317 0 479.5 -132t186.5 -374h-266q-19 146 -117 221.5t-287 75.5q-224 0 -331 -126t-107 -382q0 -254 103.5 -381t328.5 -127q375 0 422 350h-531v181h559q108 0 166 -58t58 -166v-481h-228v276q-48 -143 -172.5 -227t-322.5 -84z" />
    <glyph glyph-name="uni0122.ss03" horiz-adv-x="1615" 
d="M758 -35q-166 0 -293.5 55.5t-205.5 154t-117.5 226.5t-39.5 281t42.5 281t127.5 226.5t224 154t321 55.5q317 0 479.5 -132t186.5 -374h-266q-19 146 -117 221.5t-287 75.5q-224 0 -331 -126t-107 -382q0 -254 103.5 -381t328.5 -127q375 0 422 350h-531v181h559
q108 0 166 -58t58 -166v-481h-228v276q-48 -143 -172.5 -227t-322.5 -84zM668 -336v230h266v-371q0 -91 -48 -136.5t-153 -45.5h-65v139h116v184h-116z" />
    <glyph glyph-name="Gdotaccent.ss03" horiz-adv-x="1615" 
d="M653 1501v195h295v-195h-295zM758 -35q-166 0 -293.5 55.5t-205.5 154t-117.5 226.5t-39.5 281t42.5 281t127.5 226.5t224 154t321 55.5q317 0 479.5 -132t186.5 -374h-266q-19 146 -117 221.5t-287 75.5q-224 0 -331 -126t-107 -382q0 -254 103.5 -381t328.5 -127
q375 0 422 350h-531v181h559q108 0 166 -58t58 -166v-481h-228v276q-48 -143 -172.5 -227t-322.5 -84z" />
    <glyph glyph-name="Q.ss03" horiz-adv-x="1613" 
d="M1511 682q0 -185 -60.5 -336t-184.5 -246l127 -176l-193 -127l-139 201q-122 -33 -254 -33q-147 0 -266 37.5t-200 102.5t-135.5 156.5t-79 196.5t-24.5 224q0 118 24.5 222t79 195.5t135 157.5t200 104t266.5 38t266 -38t200 -104t135 -158t78.5 -196t24.5 -221z
M807 180q59 0 121 10l-166 238l178 119l186 -256q111 120 111 391q0 254 -99.5 378t-330.5 124t-331.5 -124t-100.5 -378t100.5 -378t331.5 -124z" />
    <glyph glyph-name="R.ss03" horiz-adv-x="1355" 
d="M844 559l145 -348h262v-211h-309q-76 0 -118.5 27.5t-69.5 97.5l-170 432h-197v-557h-262v1362h686q217 0 329.5 -102.5t112.5 -290.5q0 -388 -409 -410zM387 1157v-409h377q115 0 166 52.5t51 157.5q0 199 -217 199h-377z" />
    <glyph glyph-name="Racute.ss03" horiz-adv-x="1355" 
d="M946 1567l-504 -90l-28 75l473 185zM844 559l145 -348h262v-211h-309q-76 0 -118.5 27.5t-69.5 97.5l-170 432h-197v-557h-262v1362h686q217 0 329.5 -102.5t112.5 -290.5q0 -388 -409 -410zM387 1157v-409h377q115 0 166 52.5t51 157.5q0 199 -217 199h-377z" />
    <glyph glyph-name="Rcaron.ss03" horiz-adv-x="1355" 
d="M764 1491h-170l-236 151l99 107l221 -154l223 154l96 -107zM844 559l145 -348h262v-211h-309q-76 0 -118.5 27.5t-69.5 97.5l-170 432h-197v-557h-262v1362h686q217 0 329.5 -102.5t112.5 -290.5q0 -388 -409 -410zM387 1157v-409h377q115 0 166 52.5t51 157.5
q0 199 -217 199h-377z" />
    <glyph glyph-name="uni0156.ss03" horiz-adv-x="1355" 
d="M844 559l145 -348h262v-211h-309q-76 0 -118.5 27.5t-69.5 97.5l-170 432h-197v-557h-262v1362h686q217 0 329.5 -102.5t112.5 -290.5q0 -388 -409 -410zM387 1157v-409h377q115 0 166 52.5t51 157.5q0 199 -217 199h-377zM547 -336v230h266v-371q0 -91 -48 -136.5
t-153 -45.5h-65v139h117v184h-117z" />
    <glyph glyph-name="i.loclTRK" horiz-adv-x="516" 
d="M111 1167v195h295v-195h-295zM131 0v1024h254v-1024h-254z" />
    <glyph glyph-name="a.ss01" horiz-adv-x="1306" 
d="M922 1024h254v-1024h-254v166q-111 -199 -369 -199q-98 0 -177 28.5t-132.5 78t-90 119t-53 149t-16.5 170.5q0 92 16.5 172t52.5 149t90 118.5t133 77.5t177 28q259 0 369 -197v164zM621 168q151 0 226 83t75 261t-75 261t-226 83q-152 0 -217.5 -82t-65.5 -262
t65.5 -262t217.5 -82z" />
    <glyph glyph-name="aacute.ss01" horiz-adv-x="1306" 
d="M920 1229l-504 -90l-29 75l473 185zM922 1024h254v-1024h-254v166q-111 -199 -369 -199q-98 0 -177 28.5t-132.5 78t-90 119t-53 149t-16.5 170.5q0 92 16.5 172t52.5 149t90 118.5t133 77.5t177 28q259 0 369 -197v164zM621 168q151 0 226 83t75 261t-75 261t-226 83
q-152 0 -217.5 -82t-65.5 -262t65.5 -262t217.5 -82z" />
    <glyph glyph-name="abreve.ss01" horiz-adv-x="1306" 
d="M649 1143q-75 0 -130.5 19.5t-86.5 53t-46.5 69.5t-18.5 77h145q5 -47 40 -74.5t97 -27.5t97 27.5t38 74.5h148q-3 -41 -18.5 -77t-46.5 -69.5t-87 -53t-131 -19.5zM922 1024h254v-1024h-254v166q-111 -199 -369 -199q-98 0 -177 28.5t-132.5 78t-90 119t-53 149
t-16.5 170.5q0 92 16.5 172t52.5 149t90 118.5t133 77.5t177 28q259 0 369 -197v164zM621 168q151 0 226 83t75 261t-75 261t-226 83q-152 0 -217.5 -82t-65.5 -262t65.5 -262t217.5 -82z" />
    <glyph glyph-name="acircumflex.ss01" horiz-adv-x="1306" 
d="M653 1266l-221 -154l-98 107l235 151h170l234 -151l-96 -107zM922 1024h254v-1024h-254v166q-111 -199 -369 -199q-98 0 -177 28.5t-132.5 78t-90 119t-53 149t-16.5 170.5q0 92 16.5 172t52.5 149t90 118.5t133 77.5t177 28q259 0 369 -197v164zM621 168q151 0 226 83
t75 261t-75 261t-226 83q-152 0 -217.5 -82t-65.5 -262t65.5 -262t217.5 -82z" />
    <glyph glyph-name="adieresis.ss01" horiz-adv-x="1306" 
d="M565 1362v-195h-258v195h258zM997 1362v-195h-258v195h258zM922 1024h254v-1024h-254v166q-111 -199 -369 -199q-98 0 -177 28.5t-132.5 78t-90 119t-53 149t-16.5 170.5q0 92 16.5 172t52.5 149t90 118.5t133 77.5t177 28q259 0 369 -197v164zM621 168q151 0 226 83
t75 261t-75 261t-226 83q-152 0 -217.5 -82t-65.5 -262t65.5 -262t217.5 -82z" />
    <glyph glyph-name="agrave.ss01" horiz-adv-x="1306" 
d="M922 1214l-31 -75l-502 90l57 170zM922 1024h254v-1024h-254v166q-111 -199 -369 -199q-98 0 -177 28.5t-132.5 78t-90 119t-53 149t-16.5 170.5q0 92 16.5 172t52.5 149t90 118.5t133 77.5t177 28q259 0 369 -197v164zM621 168q151 0 226 83t75 261t-75 261t-226 83
q-152 0 -217.5 -82t-65.5 -262t65.5 -262t217.5 -82z" />
    <glyph glyph-name="amacron.ss01" horiz-adv-x="1306" 
d="M1016 1362v-166h-723v166h723zM922 1024h254v-1024h-254v166q-111 -199 -369 -199q-98 0 -177 28.5t-132.5 78t-90 119t-53 149t-16.5 170.5q0 92 16.5 172t52.5 149t90 118.5t133 77.5t177 28q259 0 369 -197v164zM621 168q151 0 226 83t75 261t-75 261t-226 83
q-152 0 -217.5 -82t-65.5 -262t65.5 -262t217.5 -82z" />
    <glyph glyph-name="aogonek.ss01" horiz-adv-x="1306" 
d="M1270 -178l2 -164q-52 -25 -129 -25q-125 0 -202 65t-77 175q0 93 58 168v125q-111 -199 -369 -199q-98 0 -177 28.5t-132.5 78t-90 119t-53 149t-16.5 170.5q0 92 16.5 172t52.5 149t90 118.5t133 77.5t177 28q259 0 369 -197v164h254v-1024h-127q-15 -38 -15 -78
q0 -58 36.5 -87.5t88.5 -29.5q48 0 111 17zM621 168q151 0 226 83t75 261t-75 261t-226 83q-152 0 -217.5 -82t-65.5 -262t65.5 -262t217.5 -82z" />
    <glyph glyph-name="aring.ss01" horiz-adv-x="1306" 
d="M653 1139q-70 0 -111.5 43.5t-41.5 107.5q0 63 41.5 106.5t111.5 43.5q71 0 113.5 -43.5t42.5 -106.5q0 -64 -42.5 -107.5t-113.5 -43.5zM653 1352q-24 0 -40.5 -17t-16.5 -45t16.5 -45.5t40.5 -17.5q25 0 42.5 17.5t17.5 45.5t-17 45t-43 17zM922 1024h254v-1024h-254
v166q-111 -199 -369 -199q-98 0 -177 28.5t-132.5 78t-90 119t-53 149t-16.5 170.5q0 92 16.5 172t52.5 149t90 118.5t133 77.5t177 28q259 0 369 -197v164zM621 168q151 0 226 83t75 261t-75 261t-226 83q-152 0 -217.5 -82t-65.5 -262t65.5 -262t217.5 -82z" />
    <glyph glyph-name="atilde.ss01" horiz-adv-x="1306" 
d="M477 1198v-39h-168v60q0 80 49.5 116.5t128.5 36.5q57 0 117 -23t107.5 -46t74.5 -23q43 0 43 49v39h168v-57q0 -80 -50 -118t-128 -38q-48 0 -109.5 23t-113 46t-74.5 23q-45 0 -45 -49zM922 1024h254v-1024h-254v166q-111 -199 -369 -199q-98 0 -177 28.5t-132.5 78
t-90 119t-53 149t-16.5 170.5q0 92 16.5 172t52.5 149t90 118.5t133 77.5t177 28q259 0 369 -197v164zM621 168q151 0 226 83t75 261t-75 261t-226 83q-152 0 -217.5 -82t-65.5 -262t65.5 -262t217.5 -82z" />
    <glyph glyph-name="g.ss02" horiz-adv-x="1208" 
d="M825 137q158 0 242 -71.5t84 -200.5q0 -301 -551 -301q-240 0 -363.5 67.5t-123.5 190.5q0 66 37.5 116t97.5 72q-55 24 -84 66t-29 94q0 82 55.5 134.5t139.5 66.5q-209 89 -209 305q0 96 34 167t93.5 112.5t133.5 61t163 19.5q126 0 210.5 -48t127.5 -122v158h221v-371
q0 -166 -121.5 -265.5t-361.5 -100.5h-148q-121 0 -121 -78q0 -35 25 -53.5t69 -18.5h379zM612 858q-247 0 -247 -199q0 -102 62.5 -148t184.5 -46q127 0 187.5 46.5t60.5 150.5q0 94 -65.5 145t-182.5 51zM608 -289q291 0 291 133q0 50 -33 80.5t-98 30.5h-326
q-50 0 -79 -28t-29 -72q0 -144 274 -144z" />
    <glyph glyph-name="gbreve.ss02" horiz-adv-x="1208" 
d="M600 1143q-75 0 -131 19.5t-87 53t-46.5 69.5t-18.5 77h146q5 -47 40 -74.5t97 -27.5t97 27.5t38 74.5h148q-3 -41 -18.5 -77t-46.5 -69.5t-87 -53t-131 -19.5zM825 137q158 0 242 -71.5t84 -200.5q0 -301 -551 -301q-240 0 -363.5 67.5t-123.5 190.5q0 66 37.5 116
t97.5 72q-55 24 -84 66t-29 94q0 82 55.5 134.5t139.5 66.5q-209 89 -209 305q0 96 34 167t93.5 112.5t133.5 61t163 19.5q126 0 210.5 -48t127.5 -122v158h221v-371q0 -166 -121.5 -265.5t-361.5 -100.5h-148q-121 0 -121 -78q0 -35 25 -53.5t69 -18.5h379zM612 858
q-247 0 -247 -199q0 -102 62.5 -148t184.5 -46q127 0 187.5 46.5t60.5 150.5q0 94 -65.5 145t-182.5 51zM608 -289q291 0 291 133q0 50 -33 80.5t-98 30.5h-326q-50 0 -79 -28t-29 -72q0 -144 274 -144z" />
    <glyph glyph-name="uni0123.ss02" horiz-adv-x="1208" 
d="M737 1374v-229h-266v371q0 91 48 136.5t153 45.5h65v-139h-116v-185h116zM825 137q158 0 242 -71.5t84 -200.5q0 -301 -551 -301q-240 0 -363.5 67.5t-123.5 190.5q0 66 37.5 116t97.5 72q-55 24 -84 66t-29 94q0 82 55.5 134.5t139.5 66.5q-209 89 -209 305q0 96 34 167
t93.5 112.5t133.5 61t163 19.5q126 0 210.5 -48t127.5 -122v158h221v-371q0 -166 -121.5 -265.5t-361.5 -100.5h-148q-121 0 -121 -78q0 -35 25 -53.5t69 -18.5h379zM612 858q-247 0 -247 -199q0 -102 62.5 -148t184.5 -46q127 0 187.5 46.5t60.5 150.5q0 94 -65.5 145
t-182.5 51zM608 -289q291 0 291 133q0 50 -33 80.5t-98 30.5h-326q-50 0 -79 -28t-29 -72q0 -144 274 -144z" />
    <glyph glyph-name="gdotaccent.ss02" horiz-adv-x="1208" 
d="M752 1362v-195h-295v195h295zM825 137q158 0 242 -71.5t84 -200.5q0 -301 -551 -301q-240 0 -363.5 67.5t-123.5 190.5q0 66 37.5 116t97.5 72q-55 24 -84 66t-29 94q0 82 55.5 134.5t139.5 66.5q-209 89 -209 305q0 96 34 167t93.5 112.5t133.5 61t163 19.5
q126 0 210.5 -48t127.5 -122v158h221v-371q0 -166 -121.5 -265.5t-361.5 -100.5h-148q-121 0 -121 -78q0 -35 25 -53.5t69 -18.5h379zM612 858q-247 0 -247 -199q0 -102 62.5 -148t184.5 -46q127 0 187.5 46.5t60.5 150.5q0 94 -65.5 145t-182.5 51zM608 -289q291 0 291 133
q0 50 -33 80.5t-98 30.5h-326q-50 0 -79 -28t-29 -72q0 -144 274 -144z" />
    <glyph glyph-name="f_f_j" horiz-adv-x="1916" 
d="M1407 1024v-193h-254v-831h-254v831h-414v-831h-254v831h-178v125l178 74v123q0 138 79 209.5t261 71.5h197v-187h-311v-223h442v123q0 143 79 215t261 72h563v-187h-680v-223h285zM1556 1024h254v-1100q0 -173 -80.5 -253.5t-277.5 -80.5h-199v203h303v1231z" />
    <glyph glyph-name="f_f_t" horiz-adv-x="2177" 
d="M2122 831h-312v-628h287v-203h-199q-194 0 -268 79.5t-74 256.5v500h-403v-836h-254v836h-414v-836h-254v831h-178v125l178 74v123q0 138 79 209.5t261 71.5h197v-187h-311v-223h428l14 6v123q0 138 79 209.5t261 71.5h178v-187h-295v-223h451l108 238h129v-238h312v-193
z" />
    <glyph glyph-name="f_j" horiz-adv-x="1298" 
d="M231 0v831h-178v125l178 74v123q0 138 79 209.5t261 71.5h613v-187h-727v-223h340v-193h-312v-831h-254zM635 -410v203h303v1231h254v-1100q0 -173 -80.5 -253.5t-277.5 -80.5h-199z" />
    <glyph glyph-name="f_t" horiz-adv-x="1509" 
d="M1454 831h-311v-628h287v-203h-199q-194 0 -268 79.5t-74 256.5v500h-404v-836h-254v831h-178v125l178 74v123q0 138 79 209.5t261 71.5h179v-187h-293v-223h448l109 238h129v-238h311v-193z" />
    <glyph glyph-name="r_t" horiz-adv-x="1523" 
d="M1466 831h-311v-628h287v-203h-197q-100 0 -167.5 20.5t-106 64t-54.5 103.5t-16 148v653l127 273h127v-238h311v-193zM379 786q89 254 340 254h49v-245h-76q-172 0 -239.5 -98t-67.5 -300v-397h-254v1024h248v-238z" />
    <glyph glyph-name="r_t_t" horiz-adv-x="2224" 
d="M2167 831h-312v-628h287v-203h-196q-100 0 -167.5 20.5t-106 64t-54.5 103.5t-16 148v495h-447v-628h287v-203h-197q-100 0 -167.5 20.5t-106 64t-54.5 103.5t-16 148v653l127 273h127v-238h465l109 238h126v-238h312v-193zM379 786q89 254 340 254h49v-245h-76
q-172 0 -239.5 -98t-67.5 -300v-397h-254v1024h248v-238z" />
    <glyph glyph-name="t_t" horiz-adv-x="1540" 
d="M1485 831h-311v-628h286v-203h-198q-194 0 -268 79.5t-74 256.5v500h-447v-633h287v-203h-199q-194 0 -268 79.5t-74 256.5v495h-190v125l211 80l104 226h129v-238h465l106 238h130v-238h311v-193z" />
    <glyph glyph-name="asterisk.case" horiz-adv-x="1568" 
d="M1464 588h-174l-465 78l383 -277l123 -123l-131 -131l-123 123l-276 381l76 -465v-174h-187v174l76 465l-274 -381l-123 -123l-131 131l122 123l381 275l-465 -76h-174v186h174l465 -76l-381 277l-122 123l131 131l123 -123l276 -383l-78 465v174h187v-174l-76 -463
l276 381l123 123l131 -131l-123 -123l-381 -277l463 76h174v-186z" />
    <glyph glyph-name="percent.alt" horiz-adv-x="1599" 
d="M391 813q-143 0 -218 83t-75 210q0 125 75.5 209t217.5 84t218.5 -84t76.5 -209q0 -127 -76 -210t-219 -83zM127 0v25l1057 1337h243v-25l-1052 -1337h-248zM391 971q65 0 95 32.5t30 102.5q0 73 -30 104t-95 31q-66 0 -94.5 -31t-28.5 -104q0 -71 28.5 -103t94.5 -32z
M1202 -12q-142 0 -217.5 83.5t-75.5 211.5q0 125 75.5 207.5t217.5 82.5t218.5 -83t76.5 -207q0 -127 -76 -211t-219 -84zM1202 145q66 0 95.5 33t29.5 105t-29.5 103.5t-95.5 31.5q-65 0 -94 -31.5t-29 -103.5t29.5 -105t93.5 -33z" />
    <glyph glyph-name="uni2197.case" horiz-adv-x="1232" 
d="M229 1362h901v-901h-184v579l-704 -706l-140 139l707 705h-580v184z" />
    <glyph glyph-name="uni2196.case" horiz-adv-x="1232" 
d="M1130 473l-137 -139l-706 706v-579h-185v901h902v-184h-580z" />
    <glyph glyph-name="uni0308.case" 
d="M-770 1501v195h258v-195h-258zM-375 1501v195h258v-195h-258z" />
    <glyph glyph-name="uni0307.case" 
d="M-410 1501v195h295v-195h-295z" />
    <glyph glyph-name="gravecomb.case" 
d="M-592 1567l57 170l476 -185l-31 -75z" />
    <glyph glyph-name="acutecomb.case" 
d="M-59 1567l-504 -90l-29 75l473 185z" />
    <glyph glyph-name="uni030B.case" 
d="M-174 1655l-313 -168l-54 57l246 244zM-586 1651l-313 -168l-53 57l245 242z" />
    <glyph glyph-name="uni0302.case" 
d="M-711 1599l236 152h170l233 -152l-96 -104l-223 152l-221 -152z" />
    <glyph glyph-name="uni030C.case" 
d="M-813 1642l98 107l221 -154l224 154l96 -107l-234 -151h-170z" />
    <glyph glyph-name="uni0306.case" 
d="M-754 1716h146q5 -47 40 -74.5t97 -27.5t97 27.5t38 74.5h148q-3 -41 -18.5 -77t-46.5 -69.5t-87 -53t-131 -19.5t-131 19.5t-87 53t-46.5 69.5t-18.5 77z" />
    <glyph glyph-name="uni030A.case" 
d="M-330 1444q-87 0 -137.5 54.5t-50.5 133.5q0 76 50.5 130.5t137.5 54.5t139 -54.5t52 -130.5q0 -78 -52 -133t-139 -55zM-401 1632q0 -35 21 -55.5t50 -20.5q31 0 51.5 20.5t20.5 55.5q0 34 -21 54t-51 20q-29 0 -50 -20t-21 -54z" />
    <glyph glyph-name="tildecomb.case" 
d="M-340 1513q-48 0 -109.5 23.5t-113 46.5t-74.5 23q-45 0 -45 -50v-38h-168v59q0 80 49.5 117t128.5 37q57 0 117 -23.5t107.5 -46.5t74.5 -23q43 0 43 50v38h168v-57q0 -80 -50 -118t-128 -38z" />
    <glyph glyph-name="uni0304.case" 
d="M-920 1706h746v-170h-746v170z" />
    <glyph glyph-name="uni0312.case" 
d="M-174 1686v-230h-266v369q0 93 47.5 138.5t152.5 45.5h66v-141h-117v-182h117z" />
    </font>
</defs>
</svg>
